<svg width="61" height="65" viewBox="0 0 61 65" fill="none" xmlns="http://www.w3.org/2000/svg">
<path fill-rule="evenodd" clip-rule="evenodd" d="M16.0001 0.992188C16.4834 0.992188 16.8751 1.38394 16.8751 1.86719V12.8922H37.3251V1.86719C37.3251 1.38394 37.7169 0.992188 38.2001 0.992188C38.6834 0.992188 39.0751 1.38394 39.0751 1.86719V12.8922H54.4001C56.2834 12.8922 57.7751 14.3839 57.7751 16.2672V41.8672C57.7751 42.3504 57.3834 42.7422 56.9001 42.7422C56.4169 42.7422 56.0251 42.3504 56.0251 41.8672V25.7422H1.97511V56.2672C1.97511 57.1839 2.68336 57.8922 3.60011 57.8922H38.0001C38.4834 57.8922 38.8751 58.2839 38.8751 58.7672C38.8751 59.2504 38.4834 59.6422 38.0001 59.6422H3.60011C1.71686 59.6422 0.22511 58.1504 0.22511 56.2672V24.8719L0.225098 24.8672L0.22511 24.8625V16.2672C0.22511 14.3839 1.71686 12.8922 3.60011 12.8922H15.1251V1.86719C15.1251 1.38394 15.5169 0.992188 16.0001 0.992188ZM1.97511 23.9922H56.0251V16.2672C56.0251 15.3504 55.3169 14.6422 54.4001 14.6422H3.60011C2.68336 14.6422 1.97511 15.3504 1.97511 16.2672V23.9922ZM9.34576 32.884C8.82272 33.2091 8.67511 33.5449 8.67511 33.7672C8.67511 33.9895 8.82272 34.3253 9.34576 34.6504C9.85584 34.9675 10.6153 35.1922 11.5001 35.1922C12.385 35.1922 13.1444 34.9675 13.6545 34.6504C14.1775 34.3253 14.3251 33.9895 14.3251 33.7672C14.3251 33.5449 14.1775 33.2091 13.6545 32.884C13.1444 32.5669 12.385 32.3422 11.5001 32.3422C10.6153 32.3422 9.85584 32.5669 9.34576 32.884ZM8.42187 31.3977C9.25092 30.8824 10.3415 30.5922 11.5001 30.5922C12.6587 30.5922 13.7493 30.8824 14.5783 31.3977C15.3944 31.905 16.0751 32.7192 16.0751 33.7672C16.0751 34.8152 15.3944 35.6294 14.5783 36.1367C13.7493 36.652 12.6587 36.9422 11.5001 36.9422C10.3415 36.9422 9.25092 36.652 8.42187 36.1367C7.60578 35.6294 6.92511 34.8152 6.92511 33.7672C6.92511 32.7192 7.60578 31.905 8.42187 31.3977ZM20.8458 32.884C20.3227 33.2091 20.1751 33.5449 20.1751 33.7672C20.1751 33.9895 20.3227 34.3253 20.8458 34.6504C21.3558 34.9675 22.1153 35.1922 23.0001 35.1922C23.885 35.1922 24.6444 34.9675 25.1545 34.6504C25.6775 34.3253 25.8251 33.9895 25.8251 33.7672C25.8251 33.5449 25.6775 33.2091 25.1545 32.884C24.6444 32.5669 23.885 32.3422 23.0001 32.3422C22.1153 32.3422 21.3558 32.5669 20.8458 32.884ZM19.9219 31.3977C20.7509 30.8824 21.8415 30.5922 23.0001 30.5922C24.1587 30.5922 25.2493 30.8824 26.0783 31.3977C26.8944 31.905 27.5751 32.7192 27.5751 33.7672C27.5751 34.8152 26.8944 35.6294 26.0783 36.1367C25.2493 36.652 24.1587 36.9422 23.0001 36.9422C21.8415 36.9422 20.7509 36.652 19.9219 36.1367C19.1058 35.6294 18.4251 34.8152 18.4251 33.7672C18.4251 32.7192 19.1058 31.905 19.9219 31.3977ZM32.4458 32.884C31.9227 33.2091 31.7751 33.5449 31.7751 33.7672C31.7751 33.9895 31.9227 34.3253 32.4458 34.6504C32.9558 34.9675 33.7153 35.1922 34.6001 35.1922C35.485 35.1922 36.2444 34.9675 36.7545 34.6504C37.2775 34.3253 37.4251 33.9895 37.4251 33.7672C37.4251 33.5449 37.2775 33.2091 36.7545 32.884C36.2444 32.5669 35.485 32.3422 34.6001 32.3422C33.7153 32.3422 32.9558 32.5669 32.4458 32.884ZM31.5219 31.3977C32.3509 30.8824 33.4415 30.5922 34.6001 30.5922C35.7587 30.5922 36.8493 30.8824 37.6783 31.3977C38.4944 31.905 39.1751 32.7192 39.1751 33.7672C39.1751 34.8152 38.4944 35.6294 37.6783 36.1367C36.8493 36.652 35.7587 36.9422 34.6001 36.9422C33.4415 36.9422 32.3509 36.652 31.5219 36.1367C30.7058 35.6294 30.0251 34.8152 30.0251 33.7672C30.0251 32.7192 30.7058 31.905 31.5219 31.3977ZM44.0458 32.884C43.5227 33.2091 43.3751 33.5449 43.3751 33.7672C43.3751 33.9895 43.5227 34.3253 44.0458 34.6504C44.5558 34.9675 45.3153 35.1922 46.2001 35.1922C47.085 35.1922 47.8444 34.9675 48.3545 34.6504C48.8775 34.3253 49.0251 33.9895 49.0251 33.7672C49.0251 33.5449 48.8775 33.2091 48.3545 32.884C47.8444 32.5669 47.085 32.3422 46.2001 32.3422C45.3153 32.3422 44.5558 32.5669 44.0458 32.884ZM43.1219 31.3977C43.9509 30.8824 45.0415 30.5922 46.2001 30.5922C47.3587 30.5922 48.4493 30.8824 49.2783 31.3977C50.0944 31.905 50.7751 32.7192 50.7751 33.7672C50.7751 34.8152 50.0944 35.6294 49.2783 36.1367C48.4493 36.652 47.3587 36.9422 46.2001 36.9422C45.0415 36.9422 43.9509 36.652 43.1219 36.1367C42.3058 35.6294 41.6251 34.8152 41.6251 33.7672C41.6251 32.7192 42.3058 31.905 43.1219 31.3977ZM9.34576 44.984C8.82272 45.3091 8.67511 45.6449 8.67511 45.8672C8.67511 46.0895 8.82272 46.4253 9.34576 46.7504C9.85584 47.0675 10.6153 47.2922 11.5001 47.2922C12.385 47.2922 13.1444 47.0675 13.6545 46.7504C14.1775 46.4253 14.3251 46.0895 14.3251 45.8672C14.3251 45.6449 14.1775 45.3091 13.6545 44.984C13.1444 44.6669 12.385 44.4422 11.5001 44.4422C10.6153 44.4422 9.85584 44.6669 9.34576 44.984ZM8.42187 43.4977C9.25092 42.9824 10.3415 42.6922 11.5001 42.6922C12.6587 42.6922 13.7493 42.9824 14.5783 43.4977C15.3944 44.005 16.0751 44.8192 16.0751 45.8672C16.0751 46.9152 15.3944 47.7294 14.5783 48.2367C13.7493 48.752 12.6587 49.0422 11.5001 49.0422C10.3415 49.0422 9.25092 48.752 8.42187 48.2367C7.60578 47.7294 6.92511 46.9152 6.92511 45.8672C6.92511 44.8192 7.60578 44.005 8.42187 43.4977ZM20.8458 44.984C20.3227 45.3091 20.1751 45.6449 20.1751 45.8672C20.1751 46.0895 20.3227 46.4253 20.8458 46.7504C21.3558 47.0675 22.1153 47.2922 23.0001 47.2922C23.885 47.2922 24.6444 47.0675 25.1545 46.7504C25.6775 46.4253 25.8251 46.0895 25.8251 45.8672C25.8251 45.6449 25.6775 45.3091 25.1545 44.984C24.6444 44.6669 23.885 44.4422 23.0001 44.4422C22.1153 44.4422 21.3558 44.6669 20.8458 44.984ZM19.9219 43.4977C20.7509 42.9824 21.8415 42.6922 23.0001 42.6922C24.1587 42.6922 25.2493 42.9824 26.0783 43.4977C26.8944 44.005 27.5751 44.8192 27.5751 45.8672C27.5751 46.9152 26.8944 47.7294 26.0783 48.2367C25.2493 48.752 24.1587 49.0422 23.0001 49.0422C21.8415 49.0422 20.7509 48.752 19.9219 48.2367C19.1058 47.7294 18.4251 46.9152 18.4251 45.8672C18.4251 44.8192 19.1058 44.005 19.9219 43.4977ZM32.4458 44.984C31.9227 45.3091 31.7751 45.6449 31.7751 45.8672C31.7751 46.0895 31.9227 46.4253 32.4458 46.7504C32.9558 47.0675 33.7153 47.2922 34.6001 47.2922C35.485 47.2922 36.2444 47.0675 36.7545 46.7504C37.2775 46.4253 37.4251 46.0895 37.4251 45.8672C37.4251 45.6449 37.2775 45.3091 36.7545 44.984C36.2444 44.6669 35.485 44.4422 34.6001 44.4422C33.7153 44.4422 32.9558 44.6669 32.4458 44.984ZM31.5219 43.4977C32.3509 42.9824 33.4415 42.6922 34.6001 42.6922C35.7587 42.6922 36.8493 42.9824 37.6783 43.4977C38.4944 44.005 39.1751 44.8192 39.1751 45.8672C39.1751 46.9152 38.4944 47.7294 37.6783 48.2367C36.8493 48.752 35.7587 49.0422 34.6001 49.0422C33.4415 49.0422 32.3509 48.752 31.5219 48.2367C30.7058 47.7294 30.0251 46.9152 30.0251 45.8672C30.0251 44.8192 30.7058 44.005 31.5219 43.4977Z" fill="#14B7FF"/>
<path fill-rule="evenodd" clip-rule="evenodd" d="M52.6001 49.7422C48.9964 49.7422 46.0751 52.6635 46.0751 56.2672C46.0751 59.8708 48.9964 62.7922 52.6001 62.7922C56.2038 62.7922 59.1251 59.8708 59.1251 56.2672C59.1251 52.6635 56.2038 49.7422 52.6001 49.7422ZM44.3251 56.2672C44.3251 51.697 48.0299 47.9922 52.6001 47.9922C57.1703 47.9922 60.8751 51.697 60.8751 56.2672C60.8751 60.8373 57.1703 64.5422 52.6001 64.5422C48.0299 64.5422 44.3251 60.8373 44.3251 56.2672Z" fill="#14B7FF"/>
<path fill-rule="evenodd" clip-rule="evenodd" d="M52.6001 50.6922C53.0834 50.6922 53.4751 51.0839 53.4751 51.5672V55.3922H55.5001C55.9834 55.3922 56.3751 55.7839 56.3751 56.2672C56.3751 56.7504 55.9834 57.1422 55.5001 57.1422H52.6001C52.1169 57.1422 51.7251 56.7504 51.7251 56.2672V51.5672C51.7251 51.0839 52.1169 50.6922 52.6001 50.6922Z" fill="#14B7FF"/>
</svg>
