<svg width="40" height="40" viewBox="0 0 40 40" fill="none" xmlns="http://www.w3.org/2000/svg">
<path fill-rule="evenodd" clip-rule="evenodd" d="M11.8828 11.5894C13.0503 10.5944 14.5956 10 16.1605 10C17.4049 10 18.5137 10.2275 19.4785 10.8031C19.886 11.0462 20.2454 11.3379 20.5656 11.6706C20.7251 11.5107 20.9005 11.3553 21.0905 11.2201C22.1364 10.3811 23.3669 10 24.8395 10C26.4943 10 28.1481 10.5596 29.2499 11.8759C30.407 13.0789 31 14.5278 31 16.3C31 18.9781 29.6976 21.5005 27.9206 23.8134C26.1499 26.118 23.9152 28.24 21.7758 30.2715L21.7327 30.3125C21.6796 30.3629 21.6225 30.409 21.5622 30.4501L21.0972 30.7671C20.6417 31.0776 20.0483 31.0776 19.5928 30.7671L19.1279 30.4501C19.0675 30.409 19.0105 30.3629 18.9573 30.3125C16.768 28.2335 14.5547 25.9724 12.8006 23.8524C12.7623 23.8062 12.7271 23.7574 12.6951 23.7065C11.2758 21.4488 10 18.9417 10 16.1415C10 14.4385 10.8133 12.8663 11.7091 11.7669C11.7617 11.7025 11.8198 11.643 11.8828 11.5894Z" fill="#FF5414"/>
</svg>
