<svg width="52" height="45" viewBox="0 0 52 45" fill="none" xmlns="http://www.w3.org/2000/svg">
<path fill-rule="evenodd" clip-rule="evenodd" d="M35 12.5V2.5C35 1.12 33.8825 0 32.5 0H25C24 0 23.095 0.595 22.7025 1.5125L15.8525 17.5H15C15 16.12 13.8825 15 12.5 15H2.5C1.1175 15 0 16.12 0 17.5V42.5C0 43.88 1.1175 45 2.5 45H12.5C13.8825 45 15 43.88 15 42.5V41.195L24.0725 44.8225C24.365 44.94 24.6825 45 25 45H39.6129C43.907 45 47.603 41.9663 48.4402 37.7546L51.3223 23.2546C52.4287 17.6884 48.1701 12.5 42.495 12.5H35ZM5 40H10V20H5V40ZM25.48 40H38.742C41.1585 40 43.2292 38.2718 43.6613 35.8942L45.9336 23.3942C46.4915 20.3251 44.1336 17.5 41.0142 17.5H32.5C31.1175 17.5 30 16.38 30 15V5H26.6475L19.7975 20.985C19.405 21.905 18.5 22.5 17.5 22.5H15V35.8075L25.48 40Z" fill="#1D3566"/>
</svg>
