<svg width="69" height="72" viewBox="0 0 69 72" fill="none" xmlns="http://www.w3.org/2000/svg">
<g clip-path="url(#clip0)">
<path fill-rule="evenodd" clip-rule="evenodd" d="M16 0.861328C16.4832 0.861328 16.875 1.25308 16.875 1.73633V12.7613H37.325V1.73633C37.325 1.25308 37.7167 0.861328 38.2 0.861328C38.6832 0.861328 39.075 1.25308 39.075 1.73633V12.7613H54.4C56.2832 12.7613 57.775 14.2531 57.775 16.1363V41.7363C57.775 42.2196 57.3832 42.6113 56.9 42.6113C56.4167 42.6113 56.025 42.2196 56.025 41.7363V25.6113H1.97499V56.1363C1.97499 57.0531 2.68324 57.7613 3.59999 57.7613H38C38.4832 57.7613 38.875 58.1531 38.875 58.6363C38.875 59.1196 38.4832 59.5113 38 59.5113H3.59999C1.71674 59.5113 0.224988 58.0196 0.224988 56.1363V24.741L0.224976 24.7363L0.224988 24.7316V16.1363C0.224988 14.2531 1.71674 12.7613 3.59999 12.7613H15.125V1.73633C15.125 1.25308 15.5167 0.861328 16 0.861328ZM1.97499 23.8613H56.025V16.1363C56.025 15.2196 55.3167 14.5113 54.4 14.5113H3.59999C2.68324 14.5113 1.97499 15.2196 1.97499 16.1363V23.8613ZM9.34564 32.7531C8.8226 33.0782 8.67499 33.4141 8.67499 33.6363C8.67499 33.8586 8.8226 34.1944 9.34564 34.5196C9.85572 34.8366 10.6151 35.0613 11.5 35.0613C12.3848 35.0613 13.1443 34.8366 13.6543 34.5196C14.1774 34.1944 14.325 33.8586 14.325 33.6363C14.325 33.4141 14.1774 33.0782 13.6543 32.7531C13.1443 32.436 12.3848 32.2113 11.5 32.2113C10.6151 32.2113 9.85572 32.436 9.34564 32.7531ZM8.42175 31.2669C9.2508 30.7515 10.3414 30.4613 11.5 30.4613C12.6586 30.4613 13.7492 30.7515 14.5782 31.2669C15.3943 31.7742 16.075 32.5883 16.075 33.6363C16.075 34.6843 15.3943 35.4985 14.5782 36.0058C13.7492 36.5212 12.6586 36.8113 11.5 36.8113C10.3414 36.8113 9.2508 36.5212 8.42175 36.0058C7.60565 35.4985 6.92499 34.6843 6.92499 33.6363C6.92499 32.5883 7.60565 31.7742 8.42175 31.2669ZM20.8456 32.7531C20.3226 33.0782 20.175 33.4141 20.175 33.6363C20.175 33.8586 20.3226 34.1944 20.8456 34.5196C21.3557 34.8366 22.1151 35.0613 23 35.0613C23.8848 35.0613 24.6443 34.8366 25.1543 34.5196C25.6774 34.1944 25.825 33.8586 25.825 33.6363C25.825 33.4141 25.6774 33.0782 25.1543 32.7531C24.6443 32.436 23.8848 32.2113 23 32.2113C22.1151 32.2113 21.3557 32.436 20.8456 32.7531ZM19.9217 31.2669C20.7508 30.7515 21.8414 30.4613 23 30.4613C24.1586 30.4613 25.2492 30.7515 26.0782 31.2669C26.8943 31.7742 27.575 32.5883 27.575 33.6363C27.575 34.6843 26.8943 35.4985 26.0782 36.0058C25.2492 36.5212 24.1586 36.8113 23 36.8113C21.8414 36.8113 20.7508 36.5212 19.9217 36.0058C19.1057 35.4985 18.425 34.6843 18.425 33.6363C18.425 32.5883 19.1057 31.7742 19.9217 31.2669ZM32.4456 32.7531C31.9226 33.0782 31.775 33.4141 31.775 33.6363C31.775 33.8586 31.9226 34.1944 32.4456 34.5196C32.9557 34.8366 33.7151 35.0613 34.6 35.0613C35.4848 35.0613 36.2443 34.8366 36.7543 34.5196C37.2774 34.1944 37.425 33.8586 37.425 33.6363C37.425 33.4141 37.2774 33.0782 36.7543 32.7531C36.2443 32.436 35.4848 32.2113 34.6 32.2113C33.7151 32.2113 32.9557 32.436 32.4456 32.7531ZM31.5217 31.2669C32.3508 30.7515 33.4414 30.4613 34.6 30.4613C35.7586 30.4613 36.8492 30.7515 37.6782 31.2669C38.4943 31.7742 39.175 32.5883 39.175 33.6363C39.175 34.6843 38.4943 35.4985 37.6782 36.0058C36.8492 36.5212 35.7586 36.8113 34.6 36.8113C33.4414 36.8113 32.3508 36.5212 31.5217 36.0058C30.7057 35.4985 30.025 34.6843 30.025 33.6363C30.025 32.5883 30.7057 31.7742 31.5217 31.2669ZM44.0456 32.7531C43.5226 33.0782 43.375 33.4141 43.375 33.6363C43.375 33.8586 43.5226 34.1944 44.0456 34.5196C44.5557 34.8366 45.3151 35.0613 46.2 35.0613C47.0848 35.0613 47.8443 34.8366 48.3543 34.5196C48.8774 34.1944 49.025 33.8586 49.025 33.6363C49.025 33.4141 48.8774 33.0782 48.3543 32.7531C47.8443 32.436 47.0848 32.2113 46.2 32.2113C45.3151 32.2113 44.5557 32.436 44.0456 32.7531ZM43.1217 31.2669C43.9508 30.7515 45.0414 30.4613 46.2 30.4613C47.3586 30.4613 48.4492 30.7515 49.2782 31.2669C50.0943 31.7742 50.775 32.5883 50.775 33.6363C50.775 34.6843 50.0943 35.4985 49.2782 36.0058C48.4492 36.5212 47.3586 36.8113 46.2 36.8113C45.0414 36.8113 43.9508 36.5212 43.1217 36.0058C42.3057 35.4985 41.625 34.6843 41.625 33.6363C41.625 32.5883 42.3057 31.7742 43.1217 31.2669ZM9.34564 44.8531C8.8226 45.1782 8.67499 45.5141 8.67499 45.7363C8.67499 45.9586 8.8226 46.2944 9.34564 46.6195C9.85572 46.9366 10.6151 47.1613 11.5 47.1613C12.3848 47.1613 13.1443 46.9366 13.6543 46.6195C14.1774 46.2944 14.325 45.9586 14.325 45.7363C14.325 45.5141 14.1774 45.1782 13.6543 44.8531C13.1443 44.536 12.3848 44.3113 11.5 44.3113C10.6151 44.3113 9.85572 44.536 9.34564 44.8531ZM8.42175 43.3669C9.2508 42.8515 10.3414 42.5613 11.5 42.5613C12.6586 42.5613 13.7492 42.8515 14.5782 43.3669C15.3943 43.8742 16.075 44.6883 16.075 45.7363C16.075 46.7843 15.3943 47.5985 14.5782 48.1058C13.7492 48.6212 12.6586 48.9113 11.5 48.9113C10.3414 48.9113 9.2508 48.6212 8.42175 48.1058C7.60565 47.5985 6.92499 46.7843 6.92499 45.7363C6.92499 44.6883 7.60565 43.8742 8.42175 43.3669ZM20.8456 44.8531C20.3226 45.1782 20.175 45.5141 20.175 45.7363C20.175 45.9586 20.3226 46.2944 20.8456 46.6195C21.3557 46.9366 22.1151 47.1613 23 47.1613C23.8848 47.1613 24.6443 46.9366 25.1543 46.6195C25.6774 46.2944 25.825 45.9586 25.825 45.7363C25.825 45.5141 25.6774 45.1782 25.1543 44.8531C24.6443 44.536 23.8848 44.3113 23 44.3113C22.1151 44.3113 21.3557 44.536 20.8456 44.8531ZM19.9217 43.3669C20.7508 42.8515 21.8414 42.5613 23 42.5613C24.1586 42.5613 25.2492 42.8515 26.0782 43.3669C26.8943 43.8742 27.575 44.6883 27.575 45.7363C27.575 46.7843 26.8943 47.5985 26.0782 48.1058C25.2492 48.6212 24.1586 48.9113 23 48.9113C21.8414 48.9113 20.7508 48.6212 19.9217 48.1058C19.1057 47.5985 18.425 46.7843 18.425 45.7363C18.425 44.6883 19.1057 43.8742 19.9217 43.3669ZM32.4456 44.8531C31.9226 45.1782 31.775 45.5141 31.775 45.7363C31.775 45.9586 31.9226 46.2944 32.4456 46.6195C32.9557 46.9366 33.7151 47.1613 34.6 47.1613C35.4848 47.1613 36.2443 46.9366 36.7543 46.6195C37.2774 46.2944 37.425 45.9586 37.425 45.7363C37.425 45.5141 37.2774 45.1782 36.7543 44.8531C36.2443 44.536 35.4848 44.3113 34.6 44.3113C33.7151 44.3113 32.9557 44.536 32.4456 44.8531ZM31.5217 43.3669C32.3508 42.8515 33.4414 42.5613 34.6 42.5613C35.7586 42.5613 36.8492 42.8515 37.6782 43.3669C38.4943 43.8742 39.175 44.6883 39.175 45.7363C39.175 46.7843 38.4943 47.5985 37.6782 48.1058C36.8492 48.6212 35.7586 48.9113 34.6 48.9113C33.4414 48.9113 32.3508 48.6212 31.5217 48.1058C30.7057 47.5985 30.025 46.7843 30.025 45.7363C30.025 44.6883 30.7057 43.8742 31.5217 43.3669Z" fill="#14B7FF"/>
<path fill-rule="evenodd" clip-rule="evenodd" d="M52.6 49.6113C48.9963 49.6113 46.075 52.5327 46.075 56.1363C46.075 59.74 48.9963 62.6613 52.6 62.6613C56.2036 62.6613 59.125 59.74 59.125 56.1363C59.125 52.5327 56.2036 49.6113 52.6 49.6113ZM44.325 56.1363C44.325 51.5662 48.0298 47.8613 52.6 47.8613C57.1701 47.8613 60.875 51.5662 60.875 56.1363C60.875 60.7065 57.1701 64.4113 52.6 64.4113C48.0298 64.4113 44.325 60.7065 44.325 56.1363Z" fill="#14B7FF"/>
<path fill-rule="evenodd" clip-rule="evenodd" d="M52.6 50.5613C53.0832 50.5613 53.475 50.9531 53.475 51.4363V55.2613H55.5C55.9832 55.2613 56.375 55.6531 56.375 56.1363C56.375 56.6196 55.9832 57.0113 55.5 57.0113H52.6C52.1167 57.0113 51.725 56.6196 51.725 56.1363V51.4363C51.725 50.9531 52.1167 50.5613 52.6 50.5613Z" fill="#14B7FF"/>
<path fill-rule="evenodd" clip-rule="evenodd" d="M52.6 42.6113C44.9647 42.6113 38.775 48.801 38.775 56.4363C38.775 64.0717 44.9647 70.2613 52.6 70.2613C60.2354 70.2613 66.425 64.0717 66.425 56.4363C66.425 48.801 60.2354 42.6113 52.6 42.6113ZM37.025 56.4363C37.025 47.8345 43.9982 40.8613 52.6 40.8613C61.2019 40.8613 68.175 47.8345 68.175 56.4363C68.175 65.0382 61.2019 72.0113 52.6 72.0113C43.9982 72.0113 37.025 65.0382 37.025 56.4363Z" fill="#1D3566"/>
</g>
<defs>
<clipPath id="clip0">
<rect width="69" height="72" fill="white" transform="translate(0 0.736328)"/>
</clipPath>
</defs>
</svg>
