<svg width="20" height="17" viewBox="0 0 20 17" fill="none" xmlns="http://www.w3.org/2000/svg">
<path fill-rule="evenodd" clip-rule="evenodd" d="M10.827 1H6.117C4.006 1 2.019 2.5998 2.019 4.4528C2.019 6.3464 3.458 7.8746 5.606 7.8746C5.756 7.8746 5.901 7.8716 6.043 7.8614C5.904 8.1283 5.804 8.429 5.804 8.741C5.804 9.2673 6.087 9.6939 6.445 10.0422C6.174 10.0422 5.913 10.0501 5.628 10.0501C3.013 10.0501 1 11.7158 1 13.4431C1 15.1443 3.207 16.2084 5.822 16.2084C8.804 16.2084 10.451 14.5166 10.451 12.8153C10.451 11.4512 10.048 10.6343 8.804 9.7543C8.378 9.453 7.564 8.7201 7.564 8.2893C7.564 7.7845 7.708 7.5358 8.468 6.9421C9.247 6.3334 9.798 5.4778 9.798 4.4826C9.798 3.2977 9.271 2.143 8.28 1.762H9.773L10.827 1ZM9.182 12.5218C9.22 12.6795 9.24 12.8418 9.24 13.0074C9.24 14.382 8.354 15.4563 5.813 15.4563C4.005 15.4563 2.699 14.3119 2.699 12.9373C2.699 11.59 4.319 10.4686 6.126 10.4881C6.548 10.4926 6.942 10.5605 7.298 10.676C8.28 11.3585 8.984 11.744 9.182 12.5218ZM6.288 7.3945C5.074 7.3583 3.921 6.0371 3.712 4.4439C3.502 2.8501 4.316 1.6307 5.529 1.6667C6.742 1.7032 7.896 2.9818 8.105 4.5751C8.315 6.1688 7.501 7.4309 6.288 7.3945ZM15.625 4.375V1.5625C15.625 1.25184 15.3732 1 15.0625 1C14.7518 1 14.5 1.25184 14.5 1.5625V4.375H11.6875C11.3768 4.375 11.125 4.62684 11.125 4.9375C11.125 5.24816 11.3768 5.5 11.6875 5.5H14.5V8.3125C14.5 8.62316 14.7518 8.875 15.0625 8.875C15.3732 8.875 15.625 8.62316 15.625 8.3125V5.5H18.4375C18.7482 5.5 19 5.24816 19 4.9375C19 4.62684 18.7482 4.375 18.4375 4.375H15.625Z" fill="white" stroke="white" stroke-width="0.5"/>
</svg>
