<svg width="72" height="72" viewBox="0 0 72 72" fill="none" xmlns="http://www.w3.org/2000/svg">
<g clip-path="url(#clip0)">
<g clip-path="url(#clip1)">
<path fill-rule="evenodd" clip-rule="evenodd" d="M32.198 55.4155C32.6515 55.2487 33.1544 55.4811 33.3212 55.9347L35.5955 62.1177L37.0587 56.9963C37.1264 56.7593 37.2911 56.5618 37.5121 56.4524C37.7331 56.3431 37.9899 56.3321 38.2195 56.4221L43.3195 58.4221C43.7694 58.5986 43.9911 59.1063 43.8146 59.5562C43.6382 60.0061 43.1305 60.2278 42.6806 60.0513L38.4769 58.4028L36.5414 65.1771C36.4373 65.5412 36.1109 65.7971 35.7325 65.8111C35.354 65.8252 35.0095 65.5942 34.8788 65.2388L31.6788 56.5388C31.512 56.0852 31.7444 55.5823 32.198 55.4155Z" fill="#14B7FF"/>
<path fill-rule="evenodd" clip-rule="evenodd" d="M31.294 2.76678C31.5471 2.79413 31.7758 2.93036 31.9203 3.13996L37.6713 11.4789L47.833 11.8623C48.0881 11.872 48.3262 11.9925 48.485 12.1923C48.6438 12.3921 48.7075 12.6513 48.6593 12.902L46.7427 22.868L53.643 30.3432C53.8077 30.5216 53.8908 30.7605 53.8725 31.0026C53.8543 31.2447 53.7362 31.4683 53.5466 31.62L52.5466 32.42C52.1693 32.7219 51.6186 32.6607 51.3168 32.2833C51.0149 31.906 51.0761 31.3553 51.4534 31.0535L51.7201 30.8401L45.1571 23.7302C44.9686 23.526 44.8883 23.2444 44.9408 22.9715L46.7482 13.5727L37.167 13.2111C36.8912 13.2007 36.6364 13.0607 36.4797 12.8335L31.0561 4.96924L24.0977 11.4758C23.8932 11.667 23.6096 11.7488 23.3348 11.696L13.936 9.88851L13.5744 19.4697C13.5638 19.7496 13.4199 20.0075 13.1873 20.1635L5.23627 25.4943L11.743 32.5432C11.9295 32.7453 12.0102 33.0234 11.9608 33.294L10.2422 42.7008L19.7333 43.0624C20.0091 43.0729 20.2637 43.2128 20.4203 43.44L25.8477 51.3096L32.9065 44.7938C33.1268 44.5904 33.4358 44.514 33.7255 44.5913L36.7255 45.3913C37.1924 45.5158 37.47 45.9952 37.3455 46.4622C37.221 46.9291 36.7415 47.2067 36.2746 47.0822L34.3026 46.5563L32.2713 68.4177C32.2384 68.7716 31.9947 69.0704 31.6547 69.1738C31.3147 69.2773 30.9459 69.1648 30.7215 68.8892L25.6885 62.7083L18.8691 70.8006C18.6212 71.0948 18.2102 71.1925 17.8564 71.0414C17.5025 70.8903 17.2889 70.5258 17.33 70.1433L18.63 58.0433C18.6817 57.5628 19.113 57.2151 19.5935 57.2667C20.074 57.3184 20.4216 57.7497 20.37 58.2302L19.3759 67.4836L25.0309 60.7729C25.1988 60.5736 25.4468 60.4596 25.7074 60.4618C25.968 60.4639 26.214 60.5822 26.3785 60.7842L30.7268 66.1242L32.4483 47.5984L26.2935 53.2797C26.1072 53.4517 25.8553 53.5344 25.6033 53.5064C25.3512 53.4783 25.1237 53.3423 24.9797 53.1335L21.4501 48.0155L20.9691 52.1381C20.9131 52.6181 20.4786 52.9618 19.9986 52.9058C19.5186 52.8498 19.1749 52.4153 19.2309 51.9353L19.9309 45.9353C19.9348 45.902 19.9405 45.8693 19.9479 45.8374L19.2286 44.7944L9.16672 44.4111C8.91314 44.4014 8.67624 44.2822 8.51746 44.0842C8.35869 43.8862 8.29367 43.6291 8.33928 43.3795L10.1608 33.4092L3.25708 25.9302C3.08369 25.7424 3.00111 25.4881 3.03105 25.2343C3.06099 24.9804 3.20044 24.7523 3.41276 24.61L11.8425 18.9582L12.2257 8.80373C12.2353 8.54867 12.3558 8.31053 12.5556 8.15172C12.7554 7.99291 13.0146 7.92927 13.2653 7.97747L23.2278 9.89334L30.6024 2.9976C30.7884 2.82371 31.0409 2.73944 31.294 2.76678ZM17.8283 14.3712C18.3063 14.442 18.6364 14.8869 18.5656 15.365L17.7656 20.765C17.7325 20.9885 17.6142 21.1905 17.4354 21.3288L12.1354 25.4288C11.7532 25.7245 11.2036 25.6543 10.9079 25.2721C10.6123 24.8899 10.6824 24.3403 11.0646 24.0446L16.0861 20.1601L16.8345 15.1085C16.9053 14.6305 17.3502 14.3004 17.8283 14.3712ZM39.4114 22.9842C38.6799 22.3191 37.6324 22.3719 36.9475 23.1253L27.9475 33.0253C27.625 33.3801 27.077 33.4092 26.7187 33.0907L22.2114 29.0842C21.4799 28.4192 20.4324 28.4719 19.7475 29.2253C19.0826 29.9567 19.1352 31.004 19.8882 31.6889L26.2876 37.4884C26.2982 37.498 26.3086 37.5079 26.3188 37.518C26.6054 37.8047 27.0517 37.9617 27.6 37.9617C27.9365 37.9617 28.4121 37.779 28.7666 37.4326L39.5496 25.4514L39.5526 25.4481C40.2176 24.7166 40.1649 23.6691 39.4114 22.9842ZM35.6526 21.9481C36.9677 20.5015 39.1202 20.3543 40.5886 21.6893C42.0345 23.0037 42.1823 25.1548 40.8493 26.6233L40.8475 26.6253L30.0504 38.6221C30.0445 38.6287 30.0384 38.6352 30.0322 38.6417C30.0278 38.6463 30.0233 38.6509 30.0187 38.6554C29.3746 39.2996 28.4589 39.7117 27.6 39.7117C26.755 39.7117 25.8094 39.4725 25.0979 38.7719L18.7114 32.9842C17.2649 31.6691 17.1176 29.5166 18.4526 28.0481C19.7665 26.6028 21.9164 26.4546 23.3847 27.7858L27.2346 31.2079L35.6526 21.9481Z" fill="#14B7FF"/>
<path fill-rule="evenodd" clip-rule="evenodd" d="M51.9 33.0117C44.099 33.0117 37.775 39.3357 37.775 47.1367C37.775 54.9377 44.099 61.2617 51.9 61.2617C59.701 61.2617 66.025 54.9377 66.025 47.1367C66.025 39.3357 59.701 33.0117 51.9 33.0117ZM36.025 47.1367C36.025 38.3692 43.1325 31.2617 51.9 31.2617C60.6675 31.2617 67.775 38.3692 67.775 47.1367C67.775 55.9042 60.6675 63.0117 51.9 63.0117C43.1325 63.0117 36.025 55.9042 36.025 47.1367Z" fill="#1D3566"/>
<path fill-rule="evenodd" clip-rule="evenodd" d="M45 41.4617C45.4832 41.4617 45.875 41.8535 45.875 42.3367L45.875 50.7367C45.875 51.22 45.4833 51.6117 45 51.6117C44.5168 51.6117 44.125 51.22 44.125 50.7367L44.125 42.3367C44.125 41.8535 44.5168 41.4617 45 41.4617Z" fill="#14B7FF"/>
<path fill-rule="evenodd" clip-rule="evenodd" d="M59 41.4617C59.4832 41.4617 59.875 41.8535 59.875 42.3367L59.875 50.7367C59.875 51.22 59.4832 51.6117 59 51.6117C58.5168 51.6117 58.125 51.22 58.125 50.7367L58.125 42.3367C58.125 41.8535 58.5167 41.4617 59 41.4617Z" fill="#14B7FF"/>
<path fill-rule="evenodd" clip-rule="evenodd" d="M47.414 40.8698C46.2083 41.421 45.875 42.0045 45.875 42.3367C45.875 42.6689 46.2083 43.2525 47.414 43.8037C48.5426 44.3196 50.1631 44.6617 52 44.6617C53.8369 44.6617 55.4574 44.3196 56.586 43.8037C57.7917 43.2525 58.125 42.6689 58.125 42.3367C58.125 42.0045 57.7917 41.421 56.586 40.8698C55.4574 40.3539 53.8369 40.0117 52 40.0117C50.1631 40.0117 48.5426 40.3539 47.414 40.8698ZM46.6865 39.2782C48.0914 38.6359 49.9709 38.2617 52 38.2617C54.0291 38.2617 55.9086 38.6359 57.3135 39.2782C58.6413 39.8851 59.875 40.9016 59.875 42.3367C59.875 43.7718 58.6413 44.7883 57.3135 45.3952C55.9086 46.0375 54.0291 46.4117 52 46.4117C49.9709 46.4117 48.0914 46.0375 46.6865 45.3952C45.3587 44.7883 44.125 43.7718 44.125 42.3367C44.125 40.9016 45.3587 39.8851 46.6865 39.2782Z" fill="#14B7FF"/>
<path fill-rule="evenodd" clip-rule="evenodd" d="M45 44.1617C45.4833 44.1617 45.875 44.5535 45.875 45.0367C45.875 45.3833 46.2155 45.9673 47.4255 46.5144C48.5594 47.0271 50.1809 47.3617 52 47.3617C53.8191 47.3617 55.4406 47.0271 56.5745 46.5144C57.7845 45.9673 58.125 45.3833 58.125 45.0367C58.125 44.5535 58.5168 44.1617 59 44.1617C59.4832 44.1617 59.875 44.5535 59.875 45.0367C59.875 46.4902 58.6289 47.5061 57.2955 48.109C55.886 48.7463 54.0076 49.1117 52 49.1117C49.9924 49.1117 48.114 48.7463 46.7045 48.109C45.3711 47.5061 44.125 46.4902 44.125 45.0367C44.125 44.5535 44.5168 44.1617 45 44.1617ZM45 49.6617C45.4833 49.6617 45.875 50.0535 45.875 50.5367C45.875 50.6738 45.9369 50.8823 46.1929 51.1543C46.4504 51.428 46.8623 51.7167 47.432 51.9799C48.569 52.5052 50.1898 52.8617 52 52.8617C53.8191 52.8617 55.4406 52.5271 56.5745 52.0144C57.7845 51.4673 58.125 50.8833 58.125 50.5367C58.125 50.0535 58.5168 49.6617 59 49.6617C59.4832 49.6617 59.875 50.0535 59.875 50.5367C59.875 51.9902 58.6289 53.0061 57.2955 53.609C55.886 54.2463 54.0076 54.6117 52 54.6117C49.9835 54.6117 48.1044 54.2183 46.698 53.5685C45.996 53.2442 45.3754 52.8392 44.9184 52.3535C44.4597 51.8661 44.125 51.2497 44.125 50.5367C44.125 50.0535 44.5168 49.6617 45 49.6617Z" fill="#14B7FF"/>
<path fill-rule="evenodd" clip-rule="evenodd" d="M45 47.0617C45.4832 47.0617 45.875 47.4535 45.875 47.9367C45.875 48.2833 46.2155 48.8673 47.4255 49.4144C48.5594 49.9271 50.1809 50.2617 52 50.2617C53.8191 50.2617 55.4406 49.9271 56.5745 49.4144C57.7845 48.8673 58.125 48.2833 58.125 47.9367C58.125 47.4535 58.5167 47.0617 59 47.0617C59.4832 47.0617 59.875 47.4535 59.875 47.9367C59.875 49.3902 58.6289 50.4061 57.2955 51.009C55.886 51.6463 54.0076 52.0117 52 52.0117C49.9924 52.0117 48.114 51.6463 46.7045 51.009C45.3711 50.4061 44.125 49.3902 44.125 47.9367C44.125 47.4535 44.5168 47.0617 45 47.0617Z" fill="#14B7FF"/>
</g>
</g>
<defs>
<clipPath id="clip0">
<rect width="72" height="70.8837" fill="white" transform="translate(0 0.736328)"/>
</clipPath>
<clipPath id="clip1">
<rect width="65" height="69" fill="white" transform="translate(3 2.73633)"/>
</clipPath>
</defs>
</svg>
