<svg width="22" height="23" viewBox="0 0 22 23" fill="none" xmlns="http://www.w3.org/2000/svg">
<path fill-rule="evenodd" clip-rule="evenodd" d="M10.8449 1.82927C5.91455 1.82927 1.82927 5.91455 1.82927 10.8449C1.82927 12.2387 2.19822 13.5627 2.77998 14.8293C2.93702 15.1337 2.96856 15.4637 2.97225 15.7087C2.97641 15.9842 2.9452 16.2801 2.90178 16.5663C2.82983 17.0406 2.70791 17.5857 2.59269 18.1009C2.57018 18.2015 2.54793 18.301 2.52635 18.3986C2.39195 19.0067 2.28156 19.5501 2.243 19.9858C2.49503 19.8449 2.78646 19.6646 3.10946 19.4633C3.12686 19.4525 3.14436 19.4416 3.16194 19.4306C3.58529 19.1667 4.0606 18.8704 4.47379 18.6664C4.68716 18.5611 4.93289 18.4553 5.17867 18.3985C5.38312 18.3512 5.81854 18.2816 6.22143 18.5449C7.53092 19.3857 9.13358 19.8606 10.8449 19.8606C15.7753 19.8606 19.8606 15.7753 19.8606 10.8449C19.8606 5.91455 15.7753 1.82927 10.8449 1.82927ZM0 10.8449C0 4.90427 4.90427 0 10.8449 0C16.7856 0 21.6899 4.90427 21.6899 10.8449C21.6899 16.7856 16.7856 21.6899 10.8449 21.6899C8.89213 21.6899 7.03018 21.1732 5.4606 20.2259C5.41342 20.2453 5.3547 20.2716 5.2834 20.3068C4.95289 20.4699 4.5429 20.7254 4.078 21.0151L4.07695 21.0158L4.07203 21.0189C3.63643 21.2903 3.14293 21.5979 2.72022 21.7989C2.5121 21.8979 2.25995 22.0015 2.0035 22.0463C1.779 22.0856 1.28376 22.1243 0.895068 21.7356C0.602599 21.4431 0.487703 21.0767 0.439114 20.7873C0.389238 20.4902 0.392735 20.1756 0.416086 19.8814C0.46265 19.2947 0.604391 18.6182 0.740201 18.0038C0.764331 17.8946 0.788295 17.7873 0.811818 17.682C0.927071 17.1659 1.03171 16.6973 1.09321 16.2919C1.12982 16.0506 1.14516 15.8672 1.14319 15.7363C1.14237 15.6819 1.13863 15.649 1.13626 15.6328C1.13396 15.6281 1.1317 15.6233 1.12948 15.6185C0.46288 14.1742 0 12.5788 0 10.8449ZM5.60883 20.1776C5.60854 20.1779 5.6025 20.1793 5.59156 20.1805C5.60365 20.1778 5.60912 20.1772 5.60883 20.1776Z" fill="#14B7FF"/>
<path d="M9.22163 6.82327C9.22163 6.45068 9.36379 6.15164 9.64813 5.92613C9.93247 5.70062 10.2658 5.58786 10.6482 5.58786C11.0404 5.58786 11.3787 5.69081 11.663 5.89671C11.9474 6.09281 12.0895 6.38205 12.0895 6.76444C12.0895 7.11741 11.9278 7.40665 11.6042 7.63216C11.3199 7.82826 10.9914 7.92631 10.6188 7.92631C10.2658 7.92631 9.94228 7.82826 9.64813 7.63216C9.36379 7.43607 9.22163 7.16644 9.22163 6.82327ZM9.66284 11.5296C9.66284 11.2256 9.64813 10.9462 9.61872 10.6913C9.58931 10.5442 9.55009 10.4412 9.50106 10.3824C9.45204 10.3236 9.34909 10.25 9.19221 10.1618C9.10397 10.1128 9.02063 10.0638 8.94219 10.0147C8.86375 9.9461 8.82453 9.85786 8.82453 9.75C8.82453 9.58332 8.93729 9.45096 9.1628 9.35291C9.22162 9.32349 9.40792 9.26957 9.72167 9.19113C10.0648 9.07347 10.3492 8.98523 10.5747 8.9264C10.9669 8.81855 11.261 8.76462 11.4571 8.76462C11.712 8.76462 11.8836 8.89208 11.9719 9.14701C12.0307 9.31369 12.0601 9.56861 12.0601 9.91178V14.0886C12.0601 14.2161 12.0601 14.3583 12.0601 14.5151C12.0699 14.6622 12.0895 14.775 12.1189 14.8534C12.1484 14.922 12.2464 15.0103 12.4131 15.1181C12.5798 15.226 12.6631 15.3535 12.6631 15.5005C12.6631 15.6574 12.6092 15.7751 12.5013 15.8535C12.4033 15.9221 12.2709 15.9564 12.1042 15.9564H9.61872C9.45204 15.9564 9.31477 15.9221 9.20692 15.8535C9.10887 15.7849 9.05985 15.6672 9.05985 15.5005C9.05985 15.4221 9.07946 15.3535 9.11868 15.2946C9.1677 15.226 9.22653 15.1721 9.29516 15.1328C9.3638 15.0936 9.42262 15.0544 9.47165 15.0152C9.53048 14.976 9.5746 14.922 9.60401 14.8534C9.63343 14.775 9.64813 14.6426 9.64813 14.4563C9.65794 14.27 9.66284 14.1475 9.66284 14.0886V11.5296Z" fill="#14B7FF"/>
</svg>
