<svg width="27" height="28" viewBox="0 0 27 28" fill="none" xmlns="http://www.w3.org/2000/svg">
<path fill-rule="evenodd" clip-rule="evenodd" d="M13.5 1.875C9.84111 1.875 6.875 4.84111 6.875 8.5C6.875 12.1589 9.84111 15.125 13.5 15.125C17.1589 15.125 20.125 12.1589 20.125 8.5C20.125 4.84111 17.1589 1.875 13.5 1.875ZM5.125 8.5C5.125 3.87462 8.87461 0.125 13.5 0.125C18.1254 0.125 21.875 3.87462 21.875 8.5C21.875 13.1254 18.1254 16.875 13.5 16.875C8.87462 16.875 5.125 13.1254 5.125 8.5Z" fill="#14B7FF"/>
<path fill-rule="evenodd" clip-rule="evenodd" d="M17.0829 14.4871C17.2557 14.0358 17.7617 13.81 18.2129 13.9829C23.2317 15.905 26.875 20.7168 26.875 26.5C26.875 26.9832 26.4832 27.375 26 27.375C25.5168 27.375 25.125 26.9832 25.125 26.5C25.125 21.4832 21.9683 17.2951 17.5871 15.6171C17.1358 15.4443 16.91 14.9383 17.0829 14.4871ZM9.71484 14.5812C9.89093 15.0312 9.66887 15.5387 9.21885 15.7148C4.9425 17.3882 1.875 21.5727 1.875 26.5C1.875 26.9832 1.48325 27.375 1 27.375C0.516751 27.375 0.125 26.9832 0.125 26.5C0.125 20.8273 3.6575 16.0118 8.58115 14.0852C9.03117 13.9091 9.53874 14.1311 9.71484 14.5812ZM6.9 20.925C7.38325 20.925 7.775 21.3168 7.775 21.8V26.5C7.775 26.9832 7.38325 27.375 6.9 27.375C6.41675 27.375 6.025 26.9832 6.025 26.5V21.8C6.025 21.3168 6.41675 20.925 6.9 20.925ZM20.1 20.925C20.5833 20.925 20.975 21.3168 20.975 21.8V26.5C20.975 26.9832 20.5833 27.375 20.1 27.375C19.6168 27.375 19.225 26.9832 19.225 26.5V21.8C19.225 21.3168 19.6168 20.925 20.1 20.925Z" fill="#14B7FF"/>
</svg>
