<svg width="28" height="28" viewBox="0 0 28 28" fill="none" xmlns="http://www.w3.org/2000/svg">
<path fill-rule="evenodd" clip-rule="evenodd" d="M4.82669 4.7356C4.03549 5.75175 3.52583 6.94599 3.52583 7.98396C3.52583 10.4951 4.66091 12.976 6.40715 15.7693C8.39478 18.1607 10.8919 20.7406 13.45 23.1971C16.0744 20.7009 18.5576 18.2895 20.5243 15.7298C22.6466 12.9675 23.7742 10.4776 23.7742 8.19C23.7742 6.81286 23.3548 5.82943 22.4772 4.93196C22.4396 4.89343 22.4036 4.85317 22.3695 4.81131C21.7867 4.09615 20.7398 3.60566 19.2913 3.60566C18.0082 3.60566 17.2077 3.9207 16.5646 4.44683C16.5248 4.4794 16.4836 4.51018 16.4412 4.5391C16.3394 4.60851 16.1611 4.77063 15.8951 5.08798C15.6373 5.39567 15.3704 5.75837 15.0603 6.18113C14.7005 6.67184 14.1213 6.94176 13.523 6.89758C12.9248 6.85341 12.3896 6.50121 12.1023 5.96272C11.6035 5.02745 11.0988 4.48856 10.5455 4.15847C9.98648 3.82501 9.21167 3.60566 8.00867 3.60566C6.87229 3.60566 5.71269 4.02889 4.82669 4.7356ZM2.44761 2.06616C3.96542 0.772682 5.97432 0 8.00867 0C9.62633 0 11.0678 0.295748 12.322 1.04398C12.8518 1.36001 13.319 1.73931 13.7353 2.17174C13.9427 1.96393 14.1706 1.76192 14.4177 1.58619C15.7774 0.495467 17.377 0 19.2913 0C21.4426 0 23.5926 0.727497 25.0249 2.43862C26.5291 4.00257 27.3 5.88614 27.3 8.19C27.3 11.6715 25.6069 14.9506 23.2967 17.9574C20.9949 20.9534 18.0898 23.712 15.3085 26.353L15.2525 26.4062C15.1834 26.4718 15.1093 26.5317 15.0308 26.5851L14.4264 26.9972C13.8342 27.4009 13.0628 27.4009 12.4706 26.9972L11.8662 26.5851C11.7878 26.5317 11.7136 26.4718 11.6445 26.4062C8.79846 23.7036 5.92109 20.7641 3.64075 18.0081C3.59103 17.948 3.54522 17.8847 3.5036 17.8185C1.65854 14.8834 0 11.6242 0 7.98396C0 5.77006 1.05728 3.72616 2.22189 2.29699C2.29015 2.21322 2.3657 2.13596 2.44761 2.06616Z" fill="#71ACDC"/>
<path fill-rule="evenodd" clip-rule="evenodd" d="M12.2397 10.0443C12.2397 9.47538 12.6907 9.01415 13.247 9.01415H14.053C14.6093 9.01415 15.0603 9.47538 15.0603 10.0443V11.6926H16.6721C17.2285 11.6926 17.6795 12.1539 17.6795 12.7228V13.3409C17.6795 13.9099 17.2285 14.3711 16.6721 14.3711H15.0603V16.0194C15.0603 16.5884 14.6093 17.0496 14.053 17.0496H13.247C12.6907 17.0496 12.2397 16.5884 12.2397 16.0194V14.3711H10.8293C10.273 14.3711 9.82196 13.9099 9.82196 13.3409V12.7228C9.82196 12.1539 10.273 11.6926 10.8293 11.6926H12.2397V10.0443Z" fill="#71ACDC"/>
</svg>
