<svg width="15" height="9" viewBox="0 0 15 9" fill="none" xmlns="http://www.w3.org/2000/svg">
<path fill-rule="evenodd" clip-rule="evenodd" d="M12.9099 5.3974C13.4069 5.8832 13.9319 6.3403 14.3789 6.8751C14.5759 7.1127 14.7619 7.358 14.9049 7.6337C15.1069 8.0258 14.9239 8.4572 14.5729 8.4806L12.3869 8.4796C11.8239 8.5264 11.3739 8.2995 10.9959 7.9142C10.6939 7.606 10.4129 7.278 10.1229 6.9594C10.0029 6.8292 9.87785 6.7067 9.72885 6.6099C9.43085 6.4162 9.17185 6.4755 9.00185 6.7867C8.82785 7.1031 8.78885 7.4535 8.77185 7.8062C8.74785 8.3208 8.59285 8.456 8.07585 8.4796C6.97085 8.5317 5.92285 8.3646 4.94885 7.8073C4.08985 7.3161 3.42385 6.6225 2.84485 5.8374C1.71585 4.3086 0.851853 2.6286 0.0758527 0.9016C-0.0991473 0.5125 0.0288527 0.303701 0.457853 0.296301C1.17085 0.282401 1.88385 0.2834 2.59685 0.2953C2.88685 0.2995 3.07885 0.465701 3.19085 0.739401C3.57685 1.6878 4.04885 2.5901 4.64085 3.4264C4.79885 3.6491 4.95985 3.8718 5.18885 4.0285C5.44185 4.202 5.63485 4.1445 5.75385 3.8622C5.82985 3.6832 5.86285 3.4904 5.87985 3.2987C5.93685 2.6391 5.94385 1.9807 5.84485 1.3235C5.78385 0.9133 5.55285 0.647701 5.14385 0.570101C4.93485 0.530501 4.96585 0.452799 5.06685 0.333599C5.24285 0.127999 5.40785 0 5.73685 0H8.20685C8.59585 0.0767 8.68185 0.251399 8.73485 0.642599L8.73685 3.3859C8.73285 3.5373 8.81285 3.9867 9.08585 4.087C9.30385 4.1584 9.44785 3.9837 9.57885 3.8453C10.1699 3.2177 10.5919 2.476 10.9689 1.708C11.1369 1.3703 11.2809 1.0196 11.4199 0.669201C11.5229 0.409201 11.6849 0.2812 11.9779 0.2869L14.3549 0.289C14.4259 0.289 14.4969 0.2901 14.5649 0.3018C14.9659 0.37 15.0759 0.542299 14.9519 0.933399C14.7569 1.5471 14.3779 2.0584 14.0069 2.5722C13.6099 3.1206 13.1869 3.6503 12.7929 4.2021C12.4319 4.7059 12.4609 4.9599 12.9099 5.3974Z" fill="white"/>
</svg>
