<svg width="65" height="51" viewBox="0 0 65 51" fill="none" xmlns="http://www.w3.org/2000/svg">
<path d="M38.7999 41.6598H27.7999C27.6999 40.6676 27.5 39.6754 27.1 38.8816H38C37.9 38.1871 37.8 37.5918 37.7 36.8973H26.2999V2.36914H62.7999V24.3957C63.4999 24.6934 64.2 24.991 64.8 25.3879V0.384766H24.2999V13.5809H14.5C13 13.5809 12.3 14.3746 11.8 15.2676L6.69995 23.4035C5.49995 24.2965 3.79995 25.2887 2.79995 26.3801C2.09995 27.0746 1.69995 27.8684 1.69995 28.8605V37.0957C1.59995 37.1949 1.49995 37.2941 1.29995 37.3934C0.899951 37.7902 0.699951 38.2863 0.699951 38.8816V41.4613C0.699951 42.652 1.69995 43.5449 2.79995 43.5449H11.9C12.2 45.1324 13 46.6207 14.1 47.7121C15.6 49.2004 17.5999 50.0934 19.7999 50.0934C21.9999 50.0934 24 49.2004 25.5 47.7121C26.6 46.6207 27.4 45.1324 27.7 43.5449H39.9C39.4 43.0488 39.0999 42.3543 38.7999 41.6598ZM13.4 16.2598C13.5 16.0613 13.8 15.5652 14.4 15.5652H20.6V23.1059C20.5 23.5027 20.1999 23.7012 19.7999 23.8996H8.69995L13.4 16.2598ZM11.7 41.6598H2.69995C2.69995 41.6598 2.59995 41.6598 2.59995 41.5605V38.9809C2.59995 38.8816 2.59995 38.8816 2.69995 38.8816H12.4C12 39.7746 11.8 40.6676 11.7 41.6598ZM3.59995 36.8973V32.5316H5.99995C6.29995 32.5316 6.49995 32.4324 6.69995 32.234C7.09995 31.8371 7.09995 31.2418 6.69995 30.8449C6.59995 30.6465 6.29995 30.5473 5.99995 30.5473H3.59995V28.9598C3.59995 28.5629 3.79995 28.166 4.19995 27.7691C4.79995 27.0746 5.69995 26.5785 6.49995 25.9832H20C21.4 25.7848 22.6 24.6934 22.7 23.2051V15.5652H24.2999V35.5082C22.9999 34.6152 21.4 34.0199 19.7 34.0199C17.5 34.0199 15.5 34.9129 14 36.4012C13.9 36.5004 13.8 36.5996 13.7 36.798H3.59995V36.8973ZM23.9 46.5215C22.8 47.6129 21.3 48.3074 19.7 48.3074C18 48.3074 16.5 47.6129 15.5 46.5215C14.4 45.4301 13.7 43.9418 13.7 42.2551C13.7 40.5684 14.4 39.0801 15.5 37.9887C16.6 36.8973 18.1 36.2027 19.7 36.2027C21.4 36.2027 22.9 36.8973 23.9 37.9887C25 39.0801 25.7 40.5684 25.7 42.2551C25.7 43.8426 25 45.4301 23.9 46.5215Z" fill="#14B7FF"/>
<path d="M19.7 39.2785C18.1 39.2785 16.8 40.5684 16.8 42.1559C16.8 43.7434 18.1 45.0332 19.7 45.0332C21.3 45.0332 22.6 43.7434 22.6 42.1559C22.6 40.6676 21.3 39.2785 19.7 39.2785ZM19.7 43.0488C19.2 43.0488 18.8 42.652 18.8 42.1559C18.8 41.6598 19.2 41.2629 19.7 41.2629C20.2 41.2629 20.6 41.6598 20.6 42.1559C20.6 42.652 20.2 43.0488 19.7 43.0488Z" fill="#14B7FF"/>
</svg>
