<svg width="16" height="17" viewBox="0 0 16 17" fill="none" xmlns="http://www.w3.org/2000/svg">
<path fill-rule="evenodd" clip-rule="evenodd" d="M1 3.59258C1.48325 3.59257 1.875 3.98433 1.875 4.46758L1.875 12.8676C1.875 13.3508 1.48325 13.7426 1 13.7426C0.516755 13.7426 0.125004 13.3508 0.125004 12.8676L0.125 4.46758C0.125 3.98433 0.51675 3.59258 1 3.59258Z" fill="#14B7FF"/>
<path fill-rule="evenodd" clip-rule="evenodd" d="M15 3.59258C15.4832 3.59257 15.875 3.98433 15.875 4.46758L15.875 12.8676C15.875 13.3508 15.4832 13.7426 15 13.7426C14.5168 13.7426 14.125 13.3508 14.125 12.8676L14.125 4.46758C14.125 3.98433 14.5167 3.59258 15 3.59258Z" fill="#14B7FF"/>
<path fill-rule="evenodd" clip-rule="evenodd" d="M3.41405 3.00063C2.20827 3.55183 1.875 4.13539 1.875 4.46758C1.875 4.79976 2.20827 5.38332 3.41405 5.93453C4.54259 6.45043 6.16312 6.79258 8 6.79258C9.83688 6.79258 11.4574 6.45043 12.586 5.93453C13.7917 5.38332 14.125 4.79976 14.125 4.46758C14.125 4.13539 13.7917 3.55183 12.586 3.00063C11.4574 2.48472 9.83688 2.14258 8 2.14258C6.16312 2.14258 4.54259 2.48472 3.41405 3.00063ZM2.68647 1.40904C4.09143 0.766777 5.97089 0.392578 8 0.392578C10.0291 0.392578 11.9086 0.766777 13.3135 1.40904C14.6413 2.01601 15.875 3.03245 15.875 4.46758C15.875 5.9027 14.6413 6.91915 13.3135 7.52611C11.9086 8.16838 10.0291 8.54258 8 8.54258C5.97089 8.54258 4.09143 8.16838 2.68647 7.52611C1.35874 6.91915 0.125 5.9027 0.125 4.46758C0.125 3.03245 1.35874 2.01601 2.68647 1.40904Z" fill="#14B7FF"/>
<path fill-rule="evenodd" clip-rule="evenodd" d="M1 6.29258C1.48325 6.29258 1.875 6.68433 1.875 7.16758C1.875 7.51412 2.21553 8.09819 3.42551 8.64529C4.55938 9.15799 6.18094 9.49258 8 9.49258C9.81906 9.49258 11.4406 9.15799 12.5745 8.64529C13.7845 8.09819 14.125 7.51412 14.125 7.16758C14.125 6.68433 14.5168 6.29258 15 6.29258C15.4832 6.29258 15.875 6.68433 15.875 7.16758C15.875 8.62103 14.6289 9.63697 13.2955 10.2399C11.886 10.8772 10.0076 11.2426 8 11.2426C5.9924 11.2426 4.11396 10.8772 2.7045 10.2399C1.37114 9.63697 0.125004 8.62103 0.125004 7.16758C0.125004 6.68433 0.516755 6.29258 1 6.29258ZM1 11.7926C1.48325 11.7926 1.875 12.1843 1.875 12.6676C1.875 12.8046 1.93695 13.0132 2.19286 13.2851C2.45043 13.5588 2.86229 13.8476 3.43198 14.1107C4.56897 14.636 6.18982 14.9926 8 14.9926C9.81906 14.9926 11.4406 14.658 12.5745 14.1453C13.7845 13.5982 14.125 13.0141 14.125 12.6676C14.125 12.1843 14.5168 11.7926 15 11.7926C15.4832 11.7926 15.875 12.1843 15.875 12.6676C15.875 14.121 14.6289 15.137 13.2955 15.7399C11.886 16.3772 10.0076 16.7426 8 16.7426C5.98352 16.7426 4.10437 16.3491 2.69803 15.6994C1.99605 15.3751 1.37541 14.9701 0.918402 14.4844C0.459729 13.997 0.125004 13.3805 0.125004 12.6676C0.125004 12.1843 0.516755 11.7926 1 11.7926Z" fill="#14B7FF"/>
<path fill-rule="evenodd" clip-rule="evenodd" d="M1 9.19258C1.48325 9.19258 1.875 9.58433 1.875 10.0676C1.875 10.4141 2.21553 10.9982 3.4255 11.5453C4.55937 12.058 6.18093 12.3926 8 12.3926C9.81906 12.3926 11.4406 12.058 12.5745 11.5453C13.7845 10.9982 14.125 10.4141 14.125 10.0676C14.125 9.58433 14.5167 9.19258 15 9.19258C15.4832 9.19258 15.875 9.58433 15.875 10.0676C15.875 11.521 14.6289 12.537 13.2955 13.1399C11.886 13.7772 10.0076 14.1426 8 14.1426C5.99239 14.1426 4.11396 13.7772 2.7045 13.1399C1.37114 12.537 0.125 11.521 0.125 10.0676C0.125 9.58433 0.516751 9.19258 1 9.19258Z" fill="#14B7FF"/>
</svg>
