<svg width="72" height="72" viewBox="0 0 72 72" fill="none" xmlns="http://www.w3.org/2000/svg">
<g clip-path="url(#clip0)">
<path d="M38.7999 52.1269H27.7999C27.6999 51.1424 27.5 50.1579 27.1 49.3703H38C37.9 48.6812 37.7999 48.0905 37.7 47.4013H26.2999V13.1409H62.7999V34.9967C63.5 35.292 64.2 35.5874 64.8 35.9812V11.1719H24.2999V24.2657H14.5C13 24.2657 12.3 25.0533 11.8 25.9393L6.69995 34.0122C5.49995 34.8982 3.79995 35.8827 2.79995 36.9657C2.09995 37.6548 1.69995 38.4424 1.69995 39.4269V47.5982C1.59995 47.6967 1.49995 47.7951 1.29995 47.8936C0.899951 48.2874 0.699951 48.7796 0.699951 49.3703V51.93C0.699951 53.1114 1.69995 53.9975 2.79995 53.9975H11.9C12.2 55.5727 13 57.0494 14.1 58.1323C15.6 59.6091 17.5999 60.4951 19.7999 60.4951C22 60.4951 24 59.6091 25.5 58.1323C26.6 57.0494 27.4 55.5727 27.7 53.9975H39.9C39.4 53.5052 39.0999 52.8161 38.7999 52.1269ZM13.4 26.9238C13.5 26.7269 13.8 26.2347 14.4 26.2347H20.6V33.7168C20.5 34.1106 20.1999 34.3075 19.7999 34.5044H8.69995L13.4 26.9238ZM11.7 52.1269H2.69995C2.69995 52.1269 2.59995 52.1269 2.59995 52.0285V49.4688C2.59995 49.3703 2.59995 49.3703 2.69995 49.3703H12.4C12 50.2564 11.8 51.1424 11.7 52.1269ZM3.59995 47.4013V43.0696H5.99995C6.29995 43.0696 6.49995 42.9711 6.69995 42.7742C7.09995 42.3804 7.09995 41.7897 6.69995 41.3959C6.59995 41.199 6.29995 41.1006 5.99995 41.1006H3.59995V39.5254C3.59995 39.1316 3.79995 38.7378 4.19995 38.344C4.79995 37.6548 5.69995 37.1626 6.49995 36.5719H20C21.4 36.375 22.6 35.292 22.7 33.8153V26.2347H24.2999V46.023C23 45.137 21.4 44.5463 19.7 44.5463C17.5 44.5463 15.5 45.4323 14 46.9091C13.9 47.0075 13.8 47.106 13.7 47.3029H3.59995V47.4013ZM23.9 56.9509C22.7999 58.0339 21.3 58.723 19.7 58.723C18 58.723 16.5 58.0339 15.5 56.9509C14.4 55.868 13.7 54.3913 13.7 52.7176C13.7 51.044 14.4 49.5672 15.5 48.4843C16.6 47.4013 18.1 46.7122 19.7 46.7122C21.4 46.7122 22.9 47.4013 23.9 48.4843C25 49.5672 25.7 51.044 25.7 52.7176C25.7 54.2928 25 55.868 23.9 56.9509Z" fill="#14B7FF"/>
<path d="M19.7 49.7641C18.1 49.7641 16.8 51.044 16.8 52.6192C16.8 54.1944 18.1 55.4742 19.7 55.4742C21.3 55.4742 22.6 54.1944 22.6 52.6192C22.6 51.1424 21.3 49.7641 19.7 49.7641ZM19.7 53.5052C19.2 53.5052 18.8 53.1114 18.8 52.6192C18.8 52.1269 19.2 51.7331 19.7 51.7331C20.2 51.7331 20.6 52.1269 20.6 52.6192C20.6 53.1114 20.2 53.5052 19.7 53.5052Z" fill="#14B7FF"/>
<path fill-rule="evenodd" clip-rule="evenodd" d="M53 31.9549C45.1078 31.9549 38.7099 38.2536 38.7099 46.0234C38.7099 53.7933 45.1078 60.092 53 60.092C60.8922 60.092 67.2901 53.7933 67.2901 46.0234C67.2901 38.2536 60.8922 31.9549 53 31.9549ZM37 46.0234C37 37.3239 44.1634 30.2715 53 30.2715C61.8366 30.2715 69 37.3239 69 46.0234C69 54.723 61.8366 61.7754 53 61.7754C44.1634 61.7754 37 54.723 37 46.0234Z" fill="#1D3566"/>
<path fill-rule="evenodd" clip-rule="evenodd" d="M53 39.009C49.065 39.009 45.875 42.1495 45.875 46.0235C45.875 49.8976 49.065 53.0381 53 53.0381C56.935 53.0381 60.125 49.8976 60.125 46.0235C60.125 42.1495 56.935 39.009 53 39.009ZM44.125 46.0235C44.125 41.198 48.0985 37.2861 53 37.2861C57.9015 37.2861 61.875 41.198 61.875 46.0235C61.875 50.8491 57.9015 54.7609 53 54.7609C48.0985 54.7609 44.125 50.8491 44.125 46.0235Z" fill="#14B7FF"/>
<path fill-rule="evenodd" clip-rule="evenodd" d="M52.625 38.1476C52.625 37.6718 53.0168 37.2861 53.5 37.2861H65.2C65.6833 37.2861 66.075 37.6718 66.075 38.1476C66.075 38.6233 65.6833 39.009 65.2 39.009H53.5C53.0168 39.009 52.625 38.6233 52.625 38.1476ZM62.225 41.6918C62.225 41.216 62.6168 40.8303 63.1 40.8303H70.8C71.2833 40.8303 71.675 41.216 71.675 41.6918C71.675 42.1675 71.2833 42.5532 70.8 42.5532H63.1C62.6168 42.5532 62.225 42.1675 62.225 41.6918ZM51.8 41.8148C52.2833 41.8148 52.675 42.2005 52.675 42.6762V46.7373H54.8C55.2833 46.7373 55.675 47.123 55.675 47.5987C55.675 48.0745 55.2833 48.4602 54.8 48.4602H51.8C51.3168 48.4602 50.925 48.0745 50.925 47.5987V42.6762C50.925 42.2005 51.3168 41.8148 51.8 41.8148ZM61.125 46.0235C61.125 45.5478 61.5168 45.1621 62 45.1621H64.6C65.0833 45.1621 65.475 45.5478 65.475 46.0235C65.475 46.4993 65.0833 46.885 64.6 46.885H62C61.5168 46.885 61.125 46.4993 61.125 46.0235ZM60.096 49.9615C60.096 49.4858 60.4877 49.1001 60.971 49.1001H67C67.4833 49.1001 67.875 49.4858 67.875 49.9615C67.875 50.4373 67.4833 50.823 67 50.823H60.971C60.4877 50.823 60.096 50.4373 60.096 49.9615Z" fill="#14B7FF"/>
</g>
<defs>
<clipPath id="clip0">
<rect width="72" height="70.8837" fill="white" transform="translate(0 0.736328)"/>
</clipPath>
</defs>
</svg>
