<svg width="26" height="24" viewBox="0 0 26 24" fill="none" xmlns="http://www.w3.org/2000/svg">
<path d="M25.5996 12.4996C25.5996 12.2996 25.4996 12.1996 25.3996 12.0996L17.0996 4.39961L17.1996 4.29961C17.9996 3.49961 17.9996 2.19961 17.1996 1.29961C16.7996 0.89961 16.2996 0.69961 15.6996 0.69961C15.0996 0.69961 14.5996 0.89961 14.1996 1.29961L12.9996 2.49961C11.9996 1.99961 10.7996 1.69961 9.59961 1.69961C7.59961 1.69961 5.79961 2.49961 4.39961 3.79961C4.29961 3.89961 4.29961 4.09961 4.29961 4.19961C4.29961 4.39961 4.39961 4.49961 4.49961 4.59961L6.49961 6.59961C5.99961 7.99961 6.29961 9.49961 7.39961 10.4996C8.09961 11.1996 9.09961 11.5996 9.99961 11.5996C10.3996 11.5996 10.7996 11.4996 11.1996 11.3996L13.8996 14.0996C13.9996 14.1996 14.1996 14.2996 14.2996 14.2996C14.4996 14.2996 14.5996 14.1996 14.6996 14.0996C16.9996 11.7996 17.4996 8.19961 15.8996 5.39961L16.1996 5.09961L24.0996 12.3996L13.2996 22.3996H8.79961C8.49961 22.3996 8.19961 22.6996 8.19961 22.9996C8.19961 23.2996 8.49961 23.5996 8.79961 23.5996H18.5996C18.8996 23.5996 19.1996 23.2996 19.1996 22.9996C19.1996 22.6996 18.8996 22.3996 18.5996 22.3996H15.0996L25.3996 12.7996C25.3996 12.7996 25.5996 12.6506 25.5996 12.4996ZM15.0996 2.09961C15.3996 1.79961 15.9996 1.79961 16.3996 2.09961C16.7996 2.49961 16.7996 2.99961 16.3996 3.39961L15.2996 4.49961L13.9996 3.19961L15.0996 2.09961ZM8.19961 9.69961C7.59961 9.19961 7.39961 8.39961 7.49961 7.59961L10.2996 10.3996C9.49961 10.4996 8.69961 10.1996 8.19961 9.69961ZM14.2996 12.8996L5.69961 4.19961C6.79961 3.29961 8.19961 2.79961 9.59961 2.79961C10.6996 2.79961 11.7996 3.09961 12.7996 3.69961L14.8996 5.79961C16.1996 7.99961 15.9996 10.8996 14.2996 12.8996Z" fill="#14B7FF"/>
<path fill-rule="evenodd" clip-rule="evenodd" d="M25.4703 12.0289L25.4734 12.032C25.574 12.1325 25.6996 12.2581 25.6996 12.4996C25.6996 12.6146 25.6268 12.7139 25.5743 12.7728C25.5457 12.8048 25.5175 12.8311 25.4965 12.8494C25.4901 12.855 25.4842 12.8599 25.4792 12.8641C25.476 12.8667 25.4731 12.869 25.4706 12.871L25.4644 12.8759L15.3536 22.2996H18.5996C18.7821 22.2996 18.9563 22.3899 19.0828 22.5164C19.2094 22.6429 19.2996 22.8171 19.2996 22.9996C19.2996 23.1821 19.2094 23.3563 19.0828 23.4828C18.9563 23.6094 18.7821 23.6996 18.5996 23.6996H8.79961C8.61709 23.6996 8.44293 23.6094 8.3164 23.4828C8.18987 23.3563 8.09961 23.1821 8.09961 22.9996C8.09961 22.8171 8.18987 22.6429 8.3164 22.5164C8.44293 22.3899 8.61709 22.2996 8.79961 22.2996H13.2604L23.9523 12.3997L16.2023 5.23829L16.024 5.41661C17.6011 8.24662 17.0835 11.8571 14.7703 14.1703L14.7672 14.1734C14.6667 14.274 14.5411 14.3996 14.2996 14.3996C14.2253 14.3996 14.1329 14.3656 14.0549 14.3266C13.9737 14.2859 13.8888 14.2302 13.8289 14.1703L11.1689 11.5104C10.7883 11.6053 10.395 11.6996 9.99961 11.6996C9.07351 11.6996 8.04903 11.2895 7.33057 10.572C6.21486 9.55641 5.90224 8.04209 6.38452 6.62594L4.4258 4.66722C4.32525 4.56669 4.19961 4.44109 4.19961 4.19961V4.19777C4.19961 4.14815 4.1996 4.06637 4.21347 3.98317C4.22713 3.90123 4.25673 3.80107 4.3289 3.7289L4.33152 3.72628C5.74802 2.41096 7.57177 1.59961 9.59961 1.59961C10.7897 1.59961 11.9793 1.89066 12.9796 2.37821L14.1289 1.2289C14.5489 0.808919 15.0749 0.599609 15.6996 0.599609C16.3243 0.599609 16.8503 0.808919 17.2703 1.2289L17.2745 1.23306C18.106 2.16855 18.1115 3.52913 17.2703 4.37032L17.2437 4.39691L25.4703 12.0289ZM17.0996 4.39961L17.1996 4.29961C17.9996 3.49961 17.9996 2.19961 17.1996 1.29961C16.7996 0.89961 16.2996 0.69961 15.6996 0.69961C15.0996 0.69961 14.5996 0.89961 14.1996 1.29961L12.9996 2.49961C11.9996 1.99961 10.7996 1.69961 9.59961 1.69961C7.59961 1.69961 5.79961 2.49961 4.39961 3.79961C4.29961 3.89961 4.29961 4.09961 4.29961 4.19961C4.29961 4.39961 4.39961 4.49961 4.49961 4.59961L6.49961 6.59961C5.99961 7.99961 6.29961 9.49961 7.39961 10.4996C8.09961 11.1996 9.09961 11.5996 9.99961 11.5996C10.3996 11.5996 10.7996 11.4996 11.1996 11.3996L13.8996 14.0996C13.9996 14.1996 14.1996 14.2996 14.2996 14.2996C14.4996 14.2996 14.5996 14.1996 14.6996 14.0996C16.9996 11.7996 17.4996 8.19961 15.8996 5.39961L16.1996 5.09961L24.0996 12.3996L13.2996 22.3996H8.79961C8.49961 22.3996 8.19961 22.6996 8.19961 22.9996C8.19961 23.2996 8.49961 23.5996 8.79961 23.5996H18.5996C18.8996 23.5996 19.1996 23.2996 19.1996 22.9996C19.1996 22.6996 18.8996 22.3996 18.5996 22.3996H15.0996L25.3996 12.7996C25.3996 12.7996 25.5996 12.6506 25.5996 12.4996C25.5996 12.2996 25.4996 12.1996 25.3996 12.0996L17.0996 4.39961ZM8.27032 9.6289C8.7048 10.0634 9.3794 10.3419 10.0758 10.3173L7.57978 7.8212C7.53983 8.52472 7.74877 9.19374 8.26363 9.62279L8.27032 9.6289ZM7.48618 7.7276C7.48979 7.68497 7.49428 7.64229 7.49961 7.59961L10.2996 10.3996C10.2567 10.405 10.2137 10.4092 10.1709 10.4123C9.41461 10.4668 8.67278 10.1728 8.19961 9.69961C7.63162 9.22628 7.42209 8.48412 7.48618 7.7276ZM15.7121 1.97461C15.4937 1.97461 15.2969 2.04375 15.1703 2.17032L14.141 3.19961L15.2996 4.35819L16.3289 3.3289C16.514 3.14381 16.5996 2.94311 16.5996 2.74961C16.5996 2.55788 16.5155 2.35907 16.3339 2.17539C16.1535 2.04216 15.9274 1.97461 15.7121 1.97461ZM16.3996 2.09961C15.9996 1.79961 15.3996 1.79961 15.0996 2.09961L13.9996 3.19961L15.2996 4.49961L16.3996 3.39961C16.7996 2.99961 16.7996 2.49961 16.3996 2.09961ZM14.2996 12.8996C14.3213 12.8741 14.3428 12.8484 14.364 12.8225C16.0045 10.8256 16.183 7.97151 14.8996 5.79961L12.7996 3.69961C11.7996 3.09961 10.6996 2.79961 9.59961 2.79961C8.23263 2.79961 6.86565 3.2763 5.77794 4.1366C5.75166 4.15738 5.72555 4.17838 5.69961 4.19961L14.2996 12.8996ZM5.84867 4.20816L14.2933 12.751C15.8978 10.7909 16.0736 7.99351 14.8199 5.86134L12.7376 3.77906C11.7558 3.19245 10.6774 2.89961 9.59961 2.89961C8.25899 2.89961 6.91746 3.36604 5.84867 4.20816Z" fill="#14B7FF"/>
<path d="M10.9996 4.09961C9.39961 3.29961 7.99961 4.09961 7.89961 4.09961C7.59961 4.29961 7.49961 4.59961 7.69961 4.89961C7.89961 5.19961 8.19961 5.29961 8.49961 5.09961C8.49961 5.09961 9.39961 4.59961 10.4996 5.09961C10.5944 5.14269 10.6996 5.19961 10.6996 5.19961C10.8996 5.19961 11.0996 5.09961 11.1996 4.89961C11.3996 4.59961 11.292 4.24582 10.9996 4.09961Z" fill="#14B7FF"/>
<path fill-rule="evenodd" clip-rule="evenodd" d="M7.59961 13.7996V16.5996C7.59961 16.9996 7.89961 17.2996 8.29961 17.2996C8.69961 17.2996 8.99961 16.8996 8.99961 16.5996V13.7996C8.99961 13.3996 8.69961 13.0996 8.29961 13.0996C7.89961 13.0996 7.59961 13.3996 7.59961 13.7996Z" fill="#14B7FF"/>
<path fill-rule="evenodd" clip-rule="evenodd" d="M3.19961 15.3996C2.99961 15.3996 2.79961 15.2996 2.69961 15.1996C2.59961 15.0996 2.49961 14.8996 2.49961 14.6996C2.49961 14.4996 2.59961 14.2996 2.69961 14.1996L5.39961 11.4996C5.69961 11.1996 6.09961 11.1996 6.39961 11.4996C6.69961 11.7996 6.69961 12.1996 6.39961 12.4996L3.69961 15.1996C3.59961 15.2996 3.39961 15.3996 3.19961 15.3996Z" fill="#14B7FF"/>
<path d="M1.29961 10.2996H4.09961C4.49961 10.2996 4.79961 9.99961 4.79961 9.59961C4.79961 9.19961 4.49961 8.89961 4.09961 8.89961H1.29961C0.89961 8.89961 0.599609 9.19961 0.599609 9.59961C0.599609 9.99961 0.89961 10.2996 1.29961 10.2996Z" fill="#14B7FF"/>
</svg>
