<svg width="34" height="42" viewBox="0 0 34 42" fill="none" xmlns="http://www.w3.org/2000/svg">
<path d="M29.0314 5.07347C25.8421 1.82498 21.5165 0 17.0062 0C12.4959 0 8.17029 1.82498 4.981 5.07347C1.79172 8.32196 0 12.7279 0 17.3219C0 21.916 1.79172 26.3219 4.981 29.5704L16.1928 40.9903C16.2994 41.099 16.4261 41.1853 16.5655 41.2442C16.7049 41.303 16.8543 41.3333 17.0053 41.3333C17.1562 41.3333 17.3056 41.303 17.445 41.2442C17.5844 41.1853 17.7111 41.099 17.8177 40.9903L29.0295 29.5704C32.2123 26.3185 33.9996 21.9141 34 17.3223C34.0004 12.7305 32.2137 8.32588 29.0314 5.07347Z" fill="#1D3566"/>
</svg>
