<svg width="51" height="70" viewBox="0 0 51 70" fill="none" xmlns="http://www.w3.org/2000/svg">
<path fill-rule="evenodd" clip-rule="evenodd" d="M29.198 53.5464C29.6515 53.3796 30.1544 53.612 30.3212 54.0655L32.5955 60.2486L34.0587 55.1272C34.1264 54.8901 34.2911 54.6926 34.5121 54.5833C34.7331 54.474 34.9899 54.463 35.2195 54.553L40.3195 56.553C40.7694 56.7294 40.9911 57.2371 40.8146 57.687C40.6382 58.1369 40.1305 58.3586 39.6806 58.1822L35.4769 56.5337L33.5414 63.308C33.4373 63.6721 33.1109 63.9279 32.7325 63.942C32.354 63.956 32.0095 63.725 31.8788 63.3696L28.6788 54.6696C28.512 54.2161 28.7444 53.7132 29.198 53.5464Z" fill="#14B7FF"/>
<path fill-rule="evenodd" clip-rule="evenodd" d="M28.294 0.897643C28.5471 0.924984 28.7758 1.06122 28.9203 1.27082L34.6713 9.60975L44.833 9.99321C45.0881 10.0028 45.3262 10.1233 45.485 10.3232C45.6438 10.523 45.7075 10.7822 45.6593 11.0328L43.7427 20.9988L50.643 28.4741C50.8077 28.6525 50.8908 28.8913 50.8725 29.1334C50.8543 29.3755 50.7362 29.5992 50.5466 29.7508L49.5466 30.5508C49.1693 30.8527 48.6186 30.7915 48.3168 30.4142C48.0149 30.0368 48.0761 29.4862 48.4534 29.1843L48.7201 28.971L42.1571 21.8611C41.9686 21.6569 41.8883 21.3753 41.9408 21.1023L43.7482 11.7035L34.167 11.342C33.8912 11.3316 33.6364 11.1916 33.4797 10.9643L28.0561 3.1001L21.0977 9.6067C20.8932 9.79787 20.6096 9.8797 20.3348 9.82684L10.936 8.01937L10.5744 17.6006C10.5638 17.8805 10.4199 18.1384 10.1873 18.2944L2.23627 23.6252L8.74298 30.6741C8.92954 30.8762 9.01021 31.1543 8.96078 31.4248L7.24223 40.8316L16.7333 41.1932C17.0091 41.2037 17.2637 41.3437 17.4203 41.5708L22.8477 49.4405L29.9065 42.9246C30.1268 42.7213 30.4358 42.6449 30.7255 42.7221L33.7255 43.5221C34.1924 43.6466 34.47 44.1261 34.3455 44.593C34.221 45.06 33.7415 45.3376 33.2746 45.213L31.3026 44.6872L29.2713 66.5485C29.2384 66.9024 28.9947 67.2012 28.6547 67.3047C28.3147 67.4081 27.9459 67.2957 27.7215 67.0201L22.6885 60.8391L15.8691 68.9314C15.6212 69.2256 15.2102 69.3234 14.8564 69.1723C14.5025 69.0212 14.2889 68.6567 14.33 68.2741L15.63 56.1741C15.6817 55.6936 16.113 55.346 16.5935 55.3976C17.074 55.4492 17.4216 55.8806 17.37 56.3611L16.3759 65.6144L22.0309 58.9037C22.1988 58.7045 22.4468 58.5904 22.7074 58.5926C22.968 58.5948 23.214 58.713 23.3785 58.9151L27.7268 64.2551L29.4483 45.7292L23.2935 51.4105C23.1072 51.5826 22.8553 51.6653 22.6033 51.6372C22.3512 51.6092 22.1237 51.4731 21.9797 51.2643L18.4501 46.1464L17.9691 50.269C17.9131 50.749 17.4786 51.0927 16.9986 51.0367C16.5186 50.9807 16.1749 50.5462 16.2309 50.0662L16.9309 44.0662C16.9348 44.0329 16.9405 44.0002 16.9479 43.9683L16.2286 42.9253L6.16672 42.5419C5.91314 42.5323 5.67624 42.413 5.51746 42.2151C5.35869 42.0171 5.29367 41.76 5.33928 41.5103L7.16077 31.5401L0.257077 24.0611C0.0836904 23.8732 0.00111425 23.619 0.0310503 23.3651C0.0609864 23.1112 0.200441 22.8832 0.412763 22.7408L8.84246 17.0891L9.22565 6.93459C9.23528 6.67953 9.35579 6.44139 9.55561 6.28258C9.75543 6.12377 10.0146 6.06013 10.2653 6.10833L20.2278 8.0242L27.6024 1.12846C27.7884 0.954569 28.0409 0.870301 28.294 0.897643ZM14.8283 12.502C15.3063 12.5728 15.6364 13.0178 15.5656 13.4958L14.7656 18.8958C14.7325 19.1193 14.6142 19.3214 14.4354 19.4597L9.13542 23.5597C8.75319 23.8554 8.20363 23.7852 7.90794 23.403C7.61226 23.0207 7.68241 22.4712 8.06464 22.1755L13.0861 18.291L13.8345 13.2394C13.9053 12.7613 14.3502 12.4312 14.8283 12.502ZM36.4114 21.115C35.6799 20.45 34.6324 20.5028 33.9475 21.2562L24.9475 31.1562C24.625 31.5109 24.077 31.5401 23.7187 31.2216L19.2114 27.2151C18.4799 26.55 17.4324 26.6028 16.7475 27.3562C16.0826 28.0876 16.1352 29.1349 16.8882 29.8198L23.2876 35.6192C23.2982 35.6288 23.3086 35.6387 23.3188 35.6489C23.6054 35.9355 24.0517 36.0926 24.6 36.0926C24.9365 36.0926 25.4121 35.9099 25.7666 35.5635L36.5496 23.5822L36.5526 23.579C37.2176 22.8475 37.1649 21.8 36.4114 21.115ZM32.6526 20.079C33.9677 18.6324 36.1202 18.4852 37.5886 19.8201C39.0345 21.1346 39.1823 23.2857 37.8493 24.7541L37.8475 24.7562L27.0504 36.7529C27.0445 36.7595 27.0384 36.7661 27.0322 36.7725C27.0278 36.7772 27.0233 36.7818 27.0187 36.7863C26.3746 37.4304 25.4589 37.8426 24.6 37.8426C23.755 37.8426 22.8094 37.6034 22.0979 36.9028L15.7114 31.115C14.2649 29.7999 14.1176 27.6475 15.4526 26.179C16.7665 24.7337 18.9164 24.5854 20.3847 25.9166L24.2346 29.3387L32.6526 20.079Z" fill="#14B7FF"/>
</svg>
