<svg width="66" height="72" viewBox="0 0 66 72" fill="none" xmlns="http://www.w3.org/2000/svg">
<g clip-path="url(#clip0)">
<path fill-rule="evenodd" clip-rule="evenodd" d="M19.4013 5.04747C17.3881 6.56317 15.975 8.72586 15.975 11.4359C15.975 11.9192 15.5833 12.3109 15.1 12.3109C14.6168 12.3109 14.225 11.9192 14.225 11.4359C14.225 8.04602 16.012 5.40871 18.3487 3.6494C20.6708 1.90121 23.6044 0.960938 26.1 0.960938C31.0673 0.960938 35.3815 3.98731 37.2111 8.50764C37.225 8.54207 37.2368 8.57734 37.2462 8.61326L37.7462 10.5133C37.8692 10.9806 37.59 11.4591 37.1227 11.5821C36.6554 11.7051 36.1768 11.426 36.0538 10.9586L35.5683 9.11362C33.9865 5.2622 30.3143 2.71094 26.1 2.71094C23.9957 2.71094 21.4293 3.52067 19.4013 5.04747Z" fill="#14B7FF"/>
<path fill-rule="evenodd" clip-rule="evenodd" d="M20.5536 7.18339C20.8096 7.03155 21.1251 7.02022 21.3913 7.15331L32.1504 12.5328L36.3334 9.89575C36.5843 9.73759 36.8982 9.71727 37.1673 9.84176C37.4365 9.96625 37.6243 10.2186 37.6662 10.5122L37.669 10.5317C37.7676 11.2217 37.875 11.9736 37.875 12.8359C37.875 16.2718 36.5417 20.6978 34.4553 24.2652C33.4082 26.0557 32.1468 27.6729 30.7239 28.8519C30.5905 28.9624 30.4552 29.0695 30.3181 29.1727C30.4441 29.399 30.6452 29.6699 30.9385 29.9797C31.4129 30.4807 32.0443 30.9967 32.7318 31.4851C34.1105 32.4648 35.6065 33.2582 36.2447 33.5317C36.6889 33.722 36.8946 34.2364 36.7043 34.6806C36.5139 35.1248 35.9995 35.3305 35.5553 35.1402C34.7935 34.8137 33.1895 33.9571 31.7182 32.9117C30.9807 32.3877 30.2496 31.7974 29.6678 31.1828C29.3564 30.854 29.0587 30.4883 28.83 30.0956C27.9107 30.5464 26.9313 30.8096 25.9076 30.8109C24.9478 30.8262 24.027 30.5935 23.1596 30.1831C22.4455 31.6743 21.237 32.7239 20.0675 33.4631C18.9305 34.1818 17.7365 34.6597 16.9893 34.9588C16.8145 35.0288 16.6641 35.089 16.5447 35.1402C16.1005 35.3305 15.5861 35.1248 15.3958 34.6806C15.2054 34.2364 15.4112 33.722 15.8553 33.5317C16.0179 33.462 16.2022 33.3879 16.4036 33.307C17.1567 33.0043 18.1488 32.6056 19.1325 31.9838C20.1993 31.3095 21.1484 30.4336 21.6551 29.2643C21.4964 29.1452 21.3402 29.0206 21.1865 28.8913C19.7922 27.7176 18.5506 26.1 17.5173 24.3111C15.4588 20.7472 14.125 16.3224 14.125 12.9359C14.125 12.9253 14.125 12.9146 14.125 12.9039C14.125 12.4238 14.1249 11.85 14.242 11.2643C14.2907 11.0211 14.4403 10.8099 14.6536 10.6834L20.5536 7.18339ZM21.0358 8.9321L15.9045 11.9761C15.8764 12.2671 15.875 12.5771 15.875 12.9359C15.875 15.9494 17.0913 20.0747 19.0327 23.4358C19.9994 25.1094 21.1203 26.5481 22.3135 27.5525C23.5084 28.5583 24.7161 29.0812 25.8849 29.0611L25.9 29.0609C27.1332 29.0609 28.386 28.5164 29.6074 27.5044C30.8283 26.4927 31.9669 25.0537 32.9447 23.3817C34.9084 20.0241 36.125 15.9001 36.125 12.8359C36.125 12.587 36.1145 12.3483 36.0966 12.1138L32.6667 14.2761C32.4078 14.4393 32.0824 14.4554 31.8087 14.3186L21.0358 8.9321ZM22.125 33.2359C22.125 32.7527 22.5168 32.3609 23 32.3609H29C29.4833 32.3609 29.875 32.7527 29.875 33.2359V36.2359C29.875 36.7192 29.4833 37.1109 29 37.1109H28.7549L31.8211 45.4334C31.92 45.7019 31.8814 46.0017 31.7178 46.2364C31.5541 46.4711 31.2861 46.6109 31 46.6109H21.5C21.2212 46.6109 20.9591 46.4781 20.7943 46.2532C20.6295 46.0283 20.5817 45.7383 20.6656 45.4725L23.3061 37.1109H23C22.5168 37.1109 22.125 36.7192 22.125 36.2359V33.2359ZM23.875 35.3609L24.5 35.3609C24.7788 35.3609 25.041 35.4938 25.2058 35.7187C25.3706 35.9436 25.4184 36.2336 25.3344 36.4994L22.6939 44.8609H29.7452L26.679 36.5384C26.5801 36.27 26.6187 35.9701 26.7823 35.7355C26.9459 35.5008 27.2139 35.3609 27.5 35.3609H28.125V34.1109H23.875V35.3609Z" fill="#14B7FF"/>
<path fill-rule="evenodd" clip-rule="evenodd" d="M35.1924 33.9991C35.3708 33.5714 35.8517 33.357 36.2891 33.5101L44.2891 36.3101L44.3039 36.3154C46.4792 37.1211 49.3482 38.9265 50.7522 41.2889C50.9991 41.7043 50.8625 42.2412 50.4471 42.4881C50.0316 42.735 49.4947 42.5984 49.2478 42.183C48.1249 40.2936 45.668 38.6885 43.7034 37.9592L36.49 35.4345L27.0076 58.1727C26.8719 58.4981 26.5542 58.7103 26.2016 58.7109C25.849 58.7116 25.5305 58.5005 25.3937 58.1756L15.8129 35.4335L8.59316 37.9604L8.59115 37.9611C4.44997 39.4345 1.77502 43.3974 1.77502 47.6359V59.4609H7.60002C8.08327 59.4609 8.47503 59.8527 8.47503 60.3359C8.47503 60.8192 8.08327 61.2109 7.60002 61.2109H0.900024C0.416775 61.2109 0.0250244 60.8192 0.0250244 60.3359V47.6359C0.0250244 42.6752 3.14922 38.0387 8.00689 36.3115L8.01096 36.3101L16.011 33.5101C16.4472 33.3574 16.927 33.5703 17.1064 33.9962L26.1959 55.5724L35.1924 33.9991Z" fill="#14B7FF"/>
<path fill-rule="evenodd" clip-rule="evenodd" d="M10.9 51.3609C11.3833 51.3609 11.775 51.7527 11.775 52.2359V59.4609H35.1C35.5833 59.4609 35.975 59.8527 35.975 60.3359C35.975 60.8192 35.5833 61.2109 35.1 61.2109H10.9C10.4168 61.2109 10.025 60.8192 10.025 60.3359V52.2359C10.025 51.7527 10.4168 51.3609 10.9 51.3609Z" fill="#14B7FF"/>
<path fill-rule="evenodd" clip-rule="evenodd" d="M49.8 42.6113C42.1646 42.6113 35.975 48.801 35.975 56.4363C35.975 64.0717 42.1646 70.2613 49.8 70.2613C57.4353 70.2613 63.625 64.0717 63.625 56.4363C63.625 48.801 57.4353 42.6113 49.8 42.6113ZM34.225 56.4363C34.225 47.8345 41.1981 40.8613 49.8 40.8613C58.4018 40.8613 65.375 47.8345 65.375 56.4363C65.375 65.0382 58.4018 72.0113 49.8 72.0113C41.1981 72.0113 34.225 65.0382 34.225 56.4363Z" fill="#1D3566"/>
<path fill-rule="evenodd" clip-rule="evenodd" d="M49.8408 48.1707C49.92 47.7587 50.2805 47.4609 50.7 47.4609H51.6C52.46 47.4609 53.0405 48.0871 53.3483 48.5949C53.6764 49.1362 53.875 49.817 53.875 50.4359C53.875 50.4708 53.8729 50.5056 53.8688 50.5402L53.6863 52.0609H56.2C57.4833 52.0609 58.575 53.1527 58.575 54.4359C58.575 54.7295 58.5317 55.141 58.3261 55.5179C58.4796 55.8245 58.575 56.1698 58.575 56.5359C58.575 57.113 58.3443 57.6469 58.0109 58.0632C58.0495 58.2182 58.075 58.3805 58.075 58.5359C58.075 59.2948 57.6479 59.9706 57.075 60.3974C57.075 60.4052 57.075 60.4126 57.075 60.4196C57.075 60.4253 57.075 60.4308 57.075 60.4359C57.075 61.7192 55.9833 62.8109 54.7 62.8109H48.8C48.4119 62.8109 48.002 62.7268 47.6285 62.5429C47.3403 62.7614 46.9703 62.9109 46.5 62.9109H43.3C42.2168 62.9109 41.325 62.0192 41.325 60.9359V55.6359C41.325 54.5527 42.2168 53.6609 43.3 53.6609H46.7C46.8817 53.6609 47.0527 53.6922 47.2104 53.7429C47.223 53.7239 47.2355 53.7052 47.2478 53.6868C47.256 53.6746 47.264 53.6625 47.272 53.6506L47.2789 53.6402L47.279 53.6402L49.3753 50.591L49.8408 48.1707ZM46.625 55.4109H43.3C43.2472 55.4109 43.1907 55.4327 43.1437 55.4797C43.0968 55.5266 43.075 55.5832 43.075 55.6359V60.9359C43.075 60.9887 43.0968 61.0453 43.1437 61.0922C43.1907 61.1392 43.2472 61.1609 43.3 61.1609H46.5C46.536 61.1609 46.5532 61.1558 46.5586 61.154C46.5637 61.1522 46.5696 61.1496 46.579 61.1424C46.5893 61.1345 46.605 61.1199 46.625 61.095L46.625 55.4109ZM48.375 60.9586C48.4852 61.02 48.6295 61.0609 48.8 61.0609H54.7C55.0168 61.0609 55.325 60.7527 55.325 60.4359C55.325 60.3968 55.325 60.367 55.3245 60.3412C55.2284 60.1574 55.1994 59.9424 55.2484 59.7349C55.3181 59.4398 55.5356 59.2017 55.8233 59.1058C56.1313 59.0032 56.3183 58.7007 56.3248 58.5443C56.3244 58.541 56.3236 58.5359 56.3223 58.5288C56.3182 58.5065 56.3108 58.4754 56.2994 58.4374C56.2758 58.3587 56.2441 58.2807 56.2174 58.2272C56.0283 57.849 56.1367 57.3897 56.475 57.1359C56.702 56.9657 56.825 56.7063 56.825 56.5359C56.825 56.4205 56.7585 56.2319 56.5813 56.0547C56.3824 55.8558 56.2913 55.5734 56.3363 55.2958C56.3808 55.0218 56.5525 54.7854 56.7989 54.6583C56.8032 54.6463 56.8091 54.6255 56.8143 54.5935C56.8209 54.5527 56.825 54.5007 56.825 54.4359C56.825 54.1192 56.5168 53.8109 56.2 53.8109H52.7C52.4498 53.8109 52.2115 53.7038 52.0455 53.5166C51.8794 53.3295 51.8014 53.0801 51.8312 52.8317L52.1242 50.3907C52.1141 50.1161 52.0146 49.7707 51.8517 49.502C51.7003 49.2522 51.594 49.2153 51.585 49.2109H51.4228L51.0593 51.1012C51.0365 51.2197 50.9894 51.3322 50.921 51.4317L48.7246 54.6265C48.5792 54.8446 48.4588 55.0267 48.375 55.1643L48.375 60.9586Z" fill="#14B7FF"/>
</g>
<defs>
<clipPath id="clip0">
<rect width="66" height="74" fill="white" transform="translate(0 0.736328)"/>
</clipPath>
</defs>
</svg>
