<svg width="35" height="33" viewBox="0 0 35 33" fill="none" xmlns="http://www.w3.org/2000/svg">
<path fill-rule="evenodd" clip-rule="evenodd" d="M16 2.32938C8.10781 2.32938 1.70992 8.67728 1.70992 16.5078C1.70992 24.3383 8.10781 30.6863 16 30.6863C23.8922 30.6863 30.2901 24.3383 30.2901 16.5078C30.2901 8.67728 23.8922 2.32938 16 2.32938ZM0 16.5078C0 7.74029 7.16344 0.632812 16 0.632812C24.8366 0.632812 32 7.74029 32 16.5078C32 25.2753 24.8366 32.3828 16 32.3828C7.16344 32.3828 0 25.2753 0 16.5078Z" fill="#1D3566"/>
<path fill-rule="evenodd" clip-rule="evenodd" d="M16 9.43848C12.065 9.43848 8.875 12.6035 8.875 16.5078C8.875 20.4121 12.065 23.5772 16 23.5772C19.935 23.5772 23.125 20.4121 23.125 16.5078C23.125 12.6035 19.935 9.43848 16 9.43848ZM7.125 16.5078C7.125 11.6446 11.0985 7.70215 16 7.70215C20.9015 7.70215 24.875 11.6446 24.875 16.5078C24.875 21.3711 20.9015 25.3135 16 25.3135C11.0985 25.3135 7.125 21.3711 7.125 16.5078Z" fill="#14B7FF"/>
<path fill-rule="evenodd" clip-rule="evenodd" d="M15.625 8.57031C15.625 8.09084 16.0168 7.70215 16.5 7.70215H28.2C28.6833 7.70215 29.075 8.09084 29.075 8.57031C29.075 9.04979 28.6833 9.43848 28.2 9.43848H16.5C16.0168 9.43848 15.625 9.04979 15.625 8.57031ZM25.225 12.1422C25.225 11.6627 25.6168 11.274 26.1 11.274H33.8C34.2833 11.274 34.675 11.6627 34.675 12.1422C34.675 12.6217 34.2833 13.0104 33.8 13.0104H26.1C25.6168 13.0104 25.225 12.6217 25.225 12.1422ZM14.8 12.2662C15.2833 12.2662 15.675 12.6549 15.675 13.1344V17.2271H17.8C18.2833 17.2271 18.675 17.6158 18.675 18.0953C18.675 18.5748 18.2833 18.9635 17.8 18.9635H14.8C14.3168 18.9635 13.925 18.5748 13.925 18.0953V13.1344C13.925 12.6549 14.3168 12.2662 14.8 12.2662ZM24.125 16.5078C24.125 16.0283 24.5168 15.6396 25 15.6396H27.6C28.0833 15.6396 28.475 16.0283 28.475 16.5078C28.475 16.9873 28.0833 17.376 27.6 17.376H25C24.5168 17.376 24.125 16.9873 24.125 16.5078ZM23.096 20.4766C23.096 19.9971 23.4877 19.6084 23.971 19.6084H30C30.4833 19.6084 30.875 19.9971 30.875 20.4766C30.875 20.956 30.4833 21.3447 30 21.3447H23.971C23.4877 21.3447 23.096 20.956 23.096 20.4766Z" fill="#14B7FF"/>
</svg>
